<svg viewBox="0 0 923.71 676.08" xmlns="http://www.w3.org/2000/svg" xmlns:xlink="http://www.w3.org/1999/xlink"><clipPath id="a"><path d="m765.2 319.61.39-138.88 158.12 91.29-.39 138.88z"/></clipPath><clipPath id="b"><path d="m354.12 390.98 9.85-20.92 20.75.73-9.85 20.91z"/></clipPath><clipPath id="c"><path d="m564.37 245.21.4-140.67 83.88 48.43-.4 140.67z"/></clipPath><clipPath id="d"><path d="m562.63 289.5 8.95-5.2 95.02 54.86-8.95 5.2z"/></clipPath><clipPath id="e"><path d="m770.22 279.13-.01-5.28 10.2-5.89.01 5.28z"/></clipPath><clipPath id="f"><path d="m570.95 218.88.23-80.53 70.9 40.94-.23 80.52z"/></clipPath><clipPath id="g"><path d="m21.98 445.32-.65-227.96 342.61-197.81.64 227.97z"/></clipPath><clipPath id="h"><path d="m109.46 281.26-.03-11.13 21.5-12.42.03 11.14z"/></clipPath><path d="m13.78 471.29 232.44 135.08c4.93 2.87 12.87 2.87 17.79 0l353.19-203.89c4.92-2.83 4.92-7.44 0-10.31l-232.44-135.08c-4.88-2.83-12.82-2.83-17.75 0l-353.18 203.91c-4.93 2.85-4.97 7.46-.05 10.29z" fill="#fff"/><path d="m280.39 490.07c-3 1.75-3 4.61 0 6.36l62.66 36.42a12.16 12.16 0 0 0 11 0l123.48-71.3c3-1.75 3-4.61 0-6.36l-62.66-36.42a12.16 12.16 0 0 0 -11 0z" fill="#e7e8e9"/><path d="m10.13 466.18v18.61c0 1.83 1.23 3.7 3.65 5.11l232.49 135.1c4.92 2.83 12.86 2.83 17.79 0l353.18-203.91c2.47-1.42 3.7-3.29 3.7-5.2l-.05-18.57c0 1.87-1.23 3.74-3.69 5.16l-353.2 203.93c-4.92 2.83-12.86 2.83-17.79 0l-232.43-135.12c-2.46-1.42-3.65-3.24-3.65-5.11z" fill="#dfe2e3"/><path d="m366.33 6.64c4.92-2.84 8.92-.56 8.94 5.1l.63 230c0 5.63-4 12.55-8.89 15.39l-348.09 200.87c-4.92 2.88-8.92.57-8.92-5l-.65-230c0-5.65 4-12.54 8.88-15.38z"/><path d="m0 217.56.64 230c0 2.78 1 4.79 2.6 5.7l9.33 5.43c-1.57-.95-2.57-2.96-2.57-5.69l-.66-230c0-5.65 4-12.54 8.89-15.41l348.1-200.94c2.46-1.42 4.7-1.56 6.34-.64l-9.34-5.43c-1.59-.91-3.88-.78-6.34.64l-348.1 201c-4.89 2.78-8.89 9.69-8.89 15.34z" fill="#dfe2e3"/><path d="m21.91 219.71.61 221.77 340.81-196.75-.6-221.77z" fill="#fff"/><g fill="#e7e8e9"><path d="m85.06 454.61-22.31 12.97-9.61-5.55 22.31-12.97z"/><path d="m325.12 315.11-22.34 12.98-9.61-5.55 22.34-12.98z"/><path d="m385.13 280.23-22.34 12.99-9.61-5.55 22.34-12.99z"/><path d="m345.09 361.42-22.31 12.97-19.84-11.46 22.31-12.96z"/><path d="m455.13 355.43-22.34 12.98-19.87-11.47 22.34-12.98z"/><path d="m485.15 337.98-22.34 12.98-44.88-25.91 22.34-12.98z"/><path d="m410.14 294.67-41.19 23.94-19.87-11.47 41.2-23.94z"/><path d="m361.3 323.06-22.34 12.98-19.87-11.47 22.34-12.98z"/><path d="m435.13 309.1-52.37 30.43-19.83-11.46 52.36-30.43z"/><path d="m375.11 343.97-22.34 12.99-19.84-11.46 22.34-12.98z"/><path d="m400.13 358.42-22.34 12.98-19.87-11.47 22.34-12.99z"/><path d="m331.28 340.51-22.34 12.98-19.87-11.47 22.34-12.98z"/><path d="m295.1 332.56-22.31 12.96-9.61-5.55 22.31-12.96z"/><path d="m265.1 349.99-22.34 12.98-9.61-5.55 22.34-12.98z"/><path d="m280.1 428.17-22.34 12.98-19.87-11.47 22.34-12.98z"/><path d="m235.08 367.43-22.31 12.97-9.61-5.55 22.31-12.97z"/><path d="m271.26 375.38-22.3 12.97-19.87-11.47 22.31-12.97z"/><path d="m205.09 384.86-22.34 12.99-9.61-5.55 22.34-12.99z"/><path d="m241.27 392.81-22.34 12.98-19.87-11.47 22.35-12.98z"/><path d="m285.08 396.3-22.31 12.96-19.84-11.45 22.31-12.97z"/><path d="m175.1 402.29-22.34 12.98-9.61-5.54 22.34-12.99z"/><path d="m211.28 410.24-22.34 12.98-19.87-11.47 22.34-12.98z"/><path d="m310.09 410.74-22.31 12.96-19.87-11.47 22.31-12.96z"/><path d="m255.09 413.73-22.35 12.98-19.83-11.45 22.34-12.99z"/><path d="m145.08 419.74-22.35 12.98-9.61-5.55 22.35-12.98z"/><path d="m181.26 427.69-22.34 12.98-19.87-11.47 22.34-12.98z"/><path d="m225.09 431.15-22.34 12.99-19.84-11.45 22.34-12.99z"/><path d="m151.27 445.12-22.34 12.98-19.87-11.47 22.34-12.98z"/><path d="m250.11 445.6-22.35 12.98-19.86-11.47 22.34-12.98z"/><path d="m195.07 448.6-22.34 12.98-19.84-11.45 22.34-12.98z"/><path d="m220.08 463.04-22.34 12.99-19.86-11.47 22.34-12.99z"/><path d="m336.39 424.43-113.63 66.04-19.87-11.47 113.63-66.04z"/><path d="m190.09 480.47-22.34 12.99-19.87-11.47 22.34-12.99z"/><path d="m165.08 466.03-52.33 30.41-19.84-11.45 52.33-30.41z"/><path d="m160.07 497.92-22.31 12.96-19.87-11.47 22.31-12.96z"/><path d="m215.1 494.91-52.33 30.42-19.87-11.47 52.34-30.42z"/><path d="m115.08 437.17-22.34 12.98-9.61-5.55 22.34-12.98z"/><path d="m355.11 297.68-22.34 12.98-9.61-5.55 22.34-12.98z"/><path d="m301.29 357.94-22.34 12.98-19.87-11.47 22.34-12.99z"/><path d="m365.12 407.73-22.34 12.98-19.86-11.47 22.34-12.98z"/><path d="m340.11 393.29-22.34 12.98-19.87-11.47 22.34-12.98z"/><path d="m315.1 378.85-22.34 12.98-19.84-11.45 22.34-12.98z"/><path d="m425.14 372.86-22.34 12.98-19.87-11.47 22.34-12.99z"/><path d="m395.12 390.3-22.31 12.97-19.87-11.47 22.31-12.97z"/><path d="m121.25 462.56-33.48 19.46-19.87-11.47 33.48-19.46z"/></g><g clip-path="url(#a)"><path d="m923.71 272.02-158.12-91.29-.04 14.8 158.12 91.29z" fill="#00c389"/><path d="m812.43 333.11.28-99.15 97.22 56.13-.28 99.15zm111.24-46.29-158.12-91.29-.36 124.08 158.13 91.29z" fill="#66deba"/><path d="m819.79 303 .16-56.86 82.7 47.75-.16 56.86zm90.14-12.93-97.22-56.07-.28 99.15 97.22 56.13.28-99.15" fill="#fff"/><path d="m837.58 309.17v-1l1.71 1v1zm0-4.72v-1l1.72 1v1l-1.71-1m0-4.73v-1l1.71 1v1zm0-4.73v-1l1.71 1v1zm0-4.72v-1l1.71 1v1zm35.17 38.49.07-21.53 5 2.88-.06 21.53-5-2.88m-28.23-16.3.07-22.65 5 2.87-.06 22.65-5-2.87m-6.92-26.92v-1l1.71 1v1zm21 35.08.07-26.61 5 2.88-.07 26.6zm-21-39.81v-1l1.71 1v1zm34.74 22.63v-4.46l5.93 3.43v4.45l-2-1.16-1 1.43-1-2.54-2-1.15m-28.13-17.34v-4.45l5.91 3.42v4.45l-2-1.16-1 1.43-1-2.53-2-1.16m7.46 30.45.09-32 5 2.87-.09 32zm-14-40.46v-1l1.71 1v1zm20.63 14.25v-4.45l5.94 3.42v4.46l-2-1.17-1 1.42-1-2.52-2-1.16m7.45 34.35.1-36.36 5 2.87-.11 36.36-5-2.87m-28.06-53.33v-1l1.71 1v1zm13.57 9.28v-4.45l5.92 3.41v4.46l-2-1.16-1 1.42-1-2.53-2-1.15m-13.56-14v-1l1.71 1v1zm27.69 18.26v-4.45l5.93 3.42v4.45l-2-1.16-1 1.43-1-2.54-2-1.15m-25.83-20.9 1.77-3.49 1.75 5.53-1.25-.73-.13 45.26 39.45 22.78v-1.45l3.91 4.29-3.91-.19v-1.44l-39.45-22.77-.51-.3-.5-.29.13-46.42-1.26-.73m63.44 29.87-82.65-47.76-.21 56.84 82.7 47.75.16-56.86" fill="#276093"/><g fill="#e1e6e9"><path d="m840.98 260.55-1.77 3.49 1.26.73-.13 46.42.5.29.51.3 39.45 22.78v1.43l3.92.24-3.91-4.29-.01 1.45-39.45-22.78.13-45.26 1.25.73z"/><path d="m839.41 266.61-1.71-.99v1.01l1.71.99z"/><path d="m839.4 271.34-1.71-.99v1.01l1.71.99z"/><path d="m839.39 276.06-1.72-.99v1.02l1.71.98z"/><path d="m839.37 280.79-1.71-.99v1.01l1.71.99z"/><path d="m839.36 285.52-1.71-.99v1.01l1.71.99z"/><path d="m839.35 290.24-1.72-.98v1.01l1.71.99z"/><path d="m839.33 294.97-1.71-.99v1.01l1.71.99z"/><path d="m839.32 299.7-1.71-.99v1.02l1.71.98z"/><path d="m839.31 304.43-1.71-.99-.01 1.01 1.71.99z"/><path d="m839.29 309.15-1.71-.99v1.01l1.71.99z"/></g><path d="m849.61 292.68-4.97-2.87-.07 22.65 4.98 2.87z" fill="#e56353"/><path d="m856.7 287.42-4.98-2.87-.09 32 4.98 2.87z" fill="#27a2db"/><path d="m863.74 296.88-4.98-2.87-.07 26.61 4.98 2.88z" fill="#fcd462"/><path d="m870.83 291.2-4.98-2.87-.1 36.36 4.97 2.87z" fill="#44c4a1"/><path d="m877.85 310.11-4.98-2.88-.07 21.53 4.98 2.88z" fill="#27a2db"/><path d="m850.11 285.07-5.92-3.42-.02 4.45 2.01 1.16.95 2.53.96-1.43 2 1.16z" fill="#ebf0f3"/><path d="m857.19 279.6-5.92-3.41-.01 4.45 2 1.15.95 2.53.97-1.42 2 1.16z" fill="#e1e6e9"/><path d="m864.25 289.31-5.94-3.42-.01 4.45 2.01 1.16.95 2.52.96-1.42 2.01 1.16z" fill="#e1e6e9"/><path d="m871.33 283.86-5.93-3.42-.01 4.45 2 1.16.96 2.53.96-1.43 2 1.16z" fill="#ebf0f3"/><path d="m878.35 302.41-5.93-3.43-.02 4.46 2.01 1.15.95 2.54.96-1.43 2.02 1.16z" fill="#ebf0f3"/></g><path d="m359.89 391.25 3.26-2.53-4.33-1.76-1.39 1.35z" fill="#ffe9d8"/><path d="m352.25 391.32 5.07-4.16a.24.24 0 0 1 .36.07l2.29 4.16a.56.56 0 0 1 -.14.72l-5.59 4.45z" fill="#00b880"/><path d="m697.48 396.42v-16.3c0 2.73 1.79 5.46 5.39 7.54v16.31c-3.6-2.08-5.4-4.82-5.39-7.55z" fill="#eff3f8"/><path d="m915.13 455.79v16.3c0 2.69-1.78 5.38-5.32 7.44l.05-16.31c3.49-2.05 5.26-4.74 5.27-7.43z" fill="#eff3f8"/><path d="m909.82 463.22-.05 16.31-25 14.52.05-16.3z" fill="#eff3f8"/><path d="m858.96 477.75-.05 16.3-156.03-90.08.04-16.31z" fill="#eff3f8"/><path d="m884.82 477.75-.05 16.3c-7.11 4.14-18.7 4.14-25.86 0l.05-16.3c7.16 4.14 18.74 4.14 25.86 0z" fill="#eff3f8"/><path d="m909.73 448.24c7.17 4.14 7.21 10.85.09 15l-25 14.53c-7.12 4.14-18.7 4.14-25.86 0l-156-90.09c-7.16-4.13-7.2-10.84-.08-15l25-14.52c7.11-4.14 18.7-4.14 25.86 0z" fill="#fff"/><g clip-path="url(#b)"><path d="m363.31 389.22h-.12c-.26-.07-.31-.34-.12-.6a.9.9 0 0 1 .7-.35h.12c.26.07.31.34.12.6a.88.88 0 0 1 -.7.35m7.43.48-13.06-3.7 11-14.73 13.09 3.73-11 14.74m-1.77-19.5a.9.9 0 0 0 -.7.36l-12.3 16.4c-.2.27-.14.54.13.61l13.63 3.89h.12a.94.94 0 0 0 .71-.36l12.29-16.42c.19-.26.14-.53-.13-.61l-13.63-3.88h-.13" fill="#7c878e"/><path d="m371.69 386.1-10.26-2.92.38-.5 10.26 2.92zm1-1.31-10.26-2.92.38-.5 10.26 2.92zm-1-1.86-8.3-2.37.38-.5 8.3 2.36zm1-1.31-8.3-2.36.38-.51 8.3 2.36zm-4.74-3.27a2.08 2.08 0 0 1 -.5-.07c-1.06-.31-1.27-1.41-.48-2.46a3.65 3.65 0 0 1 2.86-1.45 2 2 0 0 1 .49.07c1.06.31 1.28 1.41.48 2.47a3.64 3.64 0 0 1 -2.85 1.44m.78-7.1-11 14.73 13.06 3.72 11-14.74z" fill="#fff"/><path d="m363.77 388.25a.9.9 0 0 0 -.7.35c-.19.26-.14.53.12.6h.12a.88.88 0 0 0 .7-.35c.19-.26.14-.53-.12-.6z" fill="#fff"/><path d="m369.81 374.37a3.65 3.65 0 0 0 -2.86 1.45c-.79 1.05-.58 2.15.48 2.46a2.08 2.08 0 0 0 .5.07 3.64 3.64 0 0 0 2.85-1.44c.8-1.06.58-2.16-.48-2.47a2 2 0 0 0 -.49-.07" fill="#fff6cf"/><g fill="#c4deff"><path d="m364.75 378.75-.37.5 8.3 2.37.37-.51z"/><path d="m363.77 380.06-.38.5 8.3 2.37.38-.51z"/><path d="m362.79 381.37-.38.5 10.26 2.92.38-.5z"/><path d="m361.81 382.68-.38.5 10.26 2.92.38-.5z"/></g></g><path d="m662.28 313.06-5.92 3.44c2-1.15 3.21-3.6 3.22-7.07l5.92-3.43c-.01 3.47-1.24 5.91-3.22 7.06z" fill="#797c7e"/><path d="m559.36 81.68 5.91-3.44c2-1.17 4.78-1 7.85.77l-5.92 3.43c-3.06-1.76-5.84-1.93-7.84-.76z" fill="#797c7e"/><path d="m606.51 110.48a4.73 4.73 0 0 0 2.14 3.7l-5.92 3.44a4.71 4.71 0 0 1 -2.13-3.7z" fill="#fff"/><path d="m606.51 110.48-5.91 3.44z" fill="#fff"/><path d="m607.14 109.11a1.54 1.54 0 0 0 -.63 1.37l-5.91 3.44a1.51 1.51 0 0 1 .62-1.37z" fill="#fff"/><path d="m601.22 112.55 5.92-3.44a1.53 1.53 0 0 1 1.52.15l-5.92 3.44a1.53 1.53 0 0 0 -1.52-.15z" fill="#797c7e"/><path d="m602.73 117.61 5.92-3.43 10.56 6.1-5.92 3.44z" fill="#fff"/><path d="m620.73 120.42-5.92 3.44a1.48 1.48 0 0 1 -1.52-.15l5.92-3.43a1.5 1.5 0 0 0 1.52.14z" fill="#fff"/><path d="m602.74 112.7 5.92-3.44 10.57 6.1-5.92 3.44z" fill="#797c7e"/><path d="m620.73 120.42-5.92 3.44a1.47 1.47 0 0 0 .63-1.37 4.71 4.71 0 0 0 -2.13-3.69l5.91-3.44a4.72 4.72 0 0 1 2.14 3.69 1.49 1.49 0 0 1 -.63 1.37z" fill="#797c7e"/><path d="m649 129.7c6.09 3.51 11 12 11 19l-.45 160.7c0 7-5 9.82-11.06 6.3l-81.85-47.25c-6.09-3.52-11-12-11-19l.46-160.7c0-7 5-9.82 11.06-6.31zm-35.75-6c1.18.69 2.15.14 2.15-1.22a4.71 4.71 0 0 0 -2.13-3.69l-10.57-6.1c-1.18-.68-2.14-.13-2.14 1.22a4.71 4.71 0 0 0 2.13 3.7z" fill="#f3f4f5"/><path d="m613.31 118.8a4.71 4.71 0 0 1 2.13 3.69c0 1.36-1 1.91-2.15 1.23l-10.56-6.1a4.71 4.71 0 0 1 -2.13-3.7c0-1.35 1-1.9 2.14-1.22z" fill="#797c7e"/><path d="m660.03 148.73 5.92-3.44-.45 160.7-5.92 3.44z" fill="#797c7e"/><path d="m567.2 82.44 5.92-3.43 81.84 47.25-5.92 3.44z" fill="#797c7e"/><path d="m649 129.7 5.92-3.44c6.09 3.51 11 12 11 19l-5.92 3.47c.05-6.99-4.87-15.52-11-19.03z" fill="#797c7e"/><path d="m564.37 245.21.4-140.67 83.88 48.43-.4 140.67z" fill="#276093"/><g clip-path="url(#c)" fill="#276093"><path d="m564.77 104.54-.4 140.67 83.88 48.43.37-127.79-83.88-48.43z"/><path d="m648.65 152.97-83.88-48.43-.03 12.88 83.88 48.43z"/></g><g clip-path="url(#d)"><path d="m662.09 336.56-86-49.66a9.87 9.87 0 0 0 -9 0c-2.48 1.43-2.46 3.76 0 5.2l86 49.66a9.89 9.89 0 0 0 9 0c2.47-1.44 2.45-3.77 0-5.2" fill="#f0f4f7"/></g><path d="m370.93 392 1.37-8.58a.77.77 0 0 1 1.52 0l-.17 3.42a0 0 0 0 0 0 0l3.2-3.25a.4.4 0 0 1 .66.13c.53 1.26 1.18 4.82-4.3 10.32z" fill="#ffe9d8"/><path d="m751.83 381.64a13.32 13.32 0 0 0 -2.37 1.63 14 14 0 0 0 -3 3.59l-3.19 3.69 2.82 2.47c.83-.9 1.66-1.79 2.5-2.68a24.13 24.13 0 0 0 .14 3 13 13 0 0 0 .31 2c.62 2.29 2.66 3.6 4.66 4.89 1.6 1 2.55 1.64 3 1.3.65-.46-.1-2.17-.92-5.74-.87-3.74-.35-3.94-1.21-6.72a65 65 0 0 0 -2.74-7.43z" fill="#45393f"/><path d="m779.41 388.77a14.33 14.33 0 0 0 -.65 2.8 13.9 13.9 0 0 0 .21 4.65l.12 4.88 3.75-.07c0-1.22 0-2.44 0-3.66a25.2 25.2 0 0 0 2.15 2.15 12.58 12.58 0 0 0 1.58 1.28c2 1.27 4.4.87 6.74.48 1.87-.31 3-.5 3.12-1.09.17-.78-1.53-1.53-4.54-3.62s-2.9-2.68-5.41-4.16a67 67 0 0 0 -7.07-3.64z" fill="#45393f"/><path d="m787.92 356.43s-4 32.46-2.57 34.55a61.13 61.13 0 0 0 6.3 6.51c.28.25-.15.61-.27.63-2.23.38-8.2-1.26-10.82-6.31a10.56 10.56 0 0 1 -1-3l.07-28.11z" fill="#f8c4b8"/><path d="m784.2 328.42 7.38 23.93a2.43 2.43 0 0 1 -.86 2.68c-4.36 3.3-18.43 12.58-30.37 5.29a2 2 0 0 1 -1-1.53c-.57-4.92-2.9-26.71.43-30.82z" fill="#1d2518"/><path d="m774.34 281.87s5.81-2.6 18.65 12.7l16-.43 1.87 3.39s-20.53 7-26.91-.79c0 0 1.88 6.22-2.37 9.13a35.79 35.79 0 0 0 -.28 8.34 57.17 57.17 0 0 0 1.32 7.45c.63 2.9 1.24 5.28 1.68 6.93a25.89 25.89 0 0 1 -17 2.87 24.14 24.14 0 0 1 -7.9-3 60.59 60.59 0 0 0 1.57-6.28 59.63 59.63 0 0 0 .88-16.29 77.29 77.29 0 0 0 -4.11 27.82h-4.89s-3-42.51 11.19-50.7l3.08-1.77z" fill="#276093"/><path d="m777 270.77c-1.72-3.55-6.32-7.13-9.6-5.72s-4.4 6.32-2.4 10.95a12 12 0 0 0 2.08 3.26v2.74l7.91 7.7q-.33-4-.68-8a3.24 3.24 0 0 0 2.06-.53c.25-.17 1.22-.91 1.47-3.89a11.7 11.7 0 0 0 -.84-6.51z" fill="#f8c4b8"/><path d="m768.1 279.24c1.15.5 2.28 1 3.44 1.47a18.12 18.12 0 0 0 1.75.61 5.65 5.65 0 0 0 1.83.29 4.42 4.42 0 0 1 -1.88-.1 12.42 12.42 0 0 1 -1.79-.57 19.89 19.89 0 0 1 -3.35-1.7z" fill="#e3b3a8"/><path d="m763.68 269a8.25 8.25 0 0 1 3-5 7.55 7.55 0 0 1 8.09-.56c3.39 2 4.37 6.75 3.38 7.56-.34.27-.69-.09-2.18-.18-1.91-.12-2.6.39-4.06.41a7.49 7.49 0 0 1 -4-1.2c.13 6.71-.51 8.29-1.15 8.41-.92.17-2.28-2.53-2.83-4.39a10.18 10.18 0 0 1 -.25-5.05z" fill="#45393f"/><ellipse cx="765.38" cy="266.06" fill="#45393f" rx="6.16" ry="4.47" transform="matrix(.54610196 -.83771872 .83771872 .54610196 124.51 761.93)"/><path d="m774.86 285.55 6.67 2.05-7.22-5.96z" fill="#fff"/><path d="m772.27 287.01-.27 4.56-8.17-8.5 3.26-1.88z" fill="#fff"/><path d="m809 294.3 5.09-3.84a.62.62 0 0 1 1 .12.83.83 0 0 1 -.09.89l-1.34 1.53a14.75 14.75 0 0 1 3.42-.74c1.32-.13 2.93-.28 3.25.49.17.42-.1 1-.32 1.39a4.4 4.4 0 0 1 -2 1.78 7.06 7.06 0 0 1 -2.08.7 38.69 38.69 0 0 1 -5.56.52z" fill="#f8c4b8"/><path d="m753.59 333.66v4.59a4.42 4.42 0 0 0 .54 2.2 2.37 2.37 0 0 0 1.86 1.44 1.81 1.81 0 0 0 .83-.24 2.84 2.84 0 0 0 1.31-2.78c-.19-1.73-.37-3.47-.56-5.21z" fill="#f8c4b8"/><path d="m773.12 362.86q-4.17 5.65-8.65 11.45t-9 11.33l.14 9.13a1.31 1.31 0 1 1 -2.55.32l-1.9-9.95a3.89 3.89 0 0 1 .48-2.77l12-20.45z" fill="#f8c4b8"/><ellipse cx="767.41" cy="274.14" fill="#f8c4b8" rx="1.33" ry="1.6" transform="matrix(.90608638 -.42309275 .42309275 .90608638 -43.91 350.45)"/><g clip-path="url(#e)"><path d="m780.16 270.81h-.22l.26-.2v.23m-1.93 3.3a4 4 0 0 1 -.56.26c-.75.28-1.31.18-1.49-.27a2.39 2.39 0 0 1 -.09-1.68c0-.1.21-.38.89-.78a8.33 8.33 0 0 1 .84-.41l.63-.27c.81-.29 1-.2 1.16 0a1.72 1.72 0 0 1 0 .73 2.73 2.73 0 0 1 -1.42 2.39m-5.56 2.06a5.12 5.12 0 0 1 -.53.25 1.92 1.92 0 0 1 -1 .12c-.52-.13-.47-1-.4-1.53a3.29 3.29 0 0 1 .27-.84 1.56 1.56 0 0 1 .64-.64 4.88 4.88 0 0 1 .66-.29c.17-.07.38-.13.62-.21 1.37-.41 1.54-.12 1.56 0a3.57 3.57 0 0 1 -.61 1.94 3.16 3.16 0 0 1 -1.2 1.21m-2.23-1.77v-.23h.22l-.25.2m.41-.93-.16.1a.94.94 0 0 0 -.42.6v.29.17.33.05.16c0 1.5 0 1.7.48 1.85a2.24 2.24 0 0 0 1.24-.2 3.88 3.88 0 0 0 .74-.34 4.42 4.42 0 0 0 .8-.59 6.64 6.64 0 0 0 1.28-2.49.45.45 0 0 1 .23-.26l.14-.07c.31-.11.3.07.3.09s0 1.56.68 1.77a2.46 2.46 0 0 0 1.42-.17 5.19 5.19 0 0 0 .79-.37 2.8 2.8 0 0 0 .65-.37c.57-.54.65-.77 1.08-2.42l.08-.2.05-.08a.89.89 0 0 0 .16-.41v-.17c0-.11 0-.23 0-.29 0-.32-.18-.36-.29-.34a9 9 0 0 0 -2.48.76c-.31.14-.55.24-.76.36a4.17 4.17 0 0 0 -.52.37l-.27.25a2.7 2.7 0 0 1 -.48.37l-.12.09-.22.08h-.12a1.27 1.27 0 0 1 -.42-.05l-.23-.06a2.42 2.42 0 0 0 -1.19.17 10.66 10.66 0 0 0 -2.37 1" fill="#496e80"/></g><path d="m770.35 275-3.15-2a.54.54 0 0 0 -.33-.08l-1.6.15v-.49l1.61-.16a1 1 0 0 1 .64.16l3.15 2z" fill="#496e80"/><g clip-path="url(#f)"><path d="m575.3 149.3-1.27-.74-.1 36.24 1.27.74zm48 58.15v-6.69l8.91 5.15v6.69l-3-1.75-1.43 2.15-1.43-3.81-3-1.74m-42.46-26.07v-6.69l8.91 5.14v6.69l-3-1.74-1.45 2.15-1.43-3.81-3-1.74m21.25 6.37v-6.69l8.92 5.15v6.69l-3-1.75-1.45 2.15-1.43-3.81-3-1.74m-10.6-14.59v-6.69l8.91 5.14v6.7l-3-1.74-1.52 2.14-1.43-3.81-3-1.74m21.25 6.39v-6.69l8.92 5.15v6.69l-3-1.74-1.45 2.14-1.43-3.81-3-1.74m26.42-1.92-65.22-37.63v7l2-4 2.64 8.31-1.88-1.09-.11 36.24 4.84 2.79v-2.25l7.49 4.32v2.26l3.14 1.81v-16.29l7.48 4.32v16.29l3.13 1.81v-8.19l7.48 4.32v8.19l3.12 1.81.07-22.88 7.49 4.33-.07 22.87 3.13 1.81v-.57l7.49 4.32v.57l7.56 4.36.13-44.78" fill="#276093"/><g fill="#e1e6e9"><path d="m576.08 142.96-2.04 4.02-.63 1.23.62.35 1.27.74-.1 36.24-.09 33.58.76.44.77.44 59.33 34.25-.01 2.16 5.9.36-5.88-6.45-.01 2.17-59.33-34.25.09-31.82.11-36.24 1.88 1.09z"/><path d="m573.72 152.06-2.58-1.48v1.51l2.58 1.49z"/><path d="m573.7 159.18-2.58-1.49v1.52l2.58 1.49z"/><path d="m573.68 166.29-2.58-1.49v1.52l2.58 1.49z"/><path d="m573.66 173.39-2.58-1.49v1.52l2.58 1.49z"/><path d="m573.64 180.51-2.58-1.49v1.52l2.58 1.49z"/><path d="m573.62 187.62-2.58-1.49v1.52l2.58 1.49z"/><path d="m573.6 194.72-2.58-1.49v1.52l2.58 1.49z"/><path d="m573.58 201.84-2.58-1.49v1.52l2.58 1.48z"/><path d="m573.56 208.94-2.58-1.48v1.51l2.58 1.49z"/><path d="m573.54 216.05-2.58-1.49v1.52l2.58 1.48z"/></g><path d="m589.06 191.27-7.49-4.32v2.26l-.09 31.81 7.48 4.32.09-31.81z" fill="#e56353"/><path d="m599.71 183.37-7.48-4.32-.05 16.29-.08 31.82 7.48 4.32.09-31.82z" fill="#27a2db"/><path d="m610.31 197.6-7.48-4.32-.03 8.19-.09 31.82 7.49 4.32.09-31.82z" fill="#fcd462"/><path d="m620.97 189.05-7.49-4.33-.07 22.88-.09 31.81 7.49 4.33.09-31.82z" fill="#44c4a1"/><path d="m631.52 217.48-7.49-4.32v.57l-.09 31.81 7.48 4.32.09-31.81z" fill="#27a2db"/><path d="m589.8 179.83-8.9-5.14-.02 6.69 3.01 1.74 1.43 3.81 1.45-2.15 3.02 1.74z" fill="#ebf0f3"/><path d="m600.46 171.62-8.91-5.15-.02 6.69 3.01 1.74 1.44 3.82 1.45-2.15 3.01 1.74z" fill="#e1e6e9"/><path d="m611.06 186.21-8.92-5.15-.01 6.69 3.01 1.74 1.43 3.81 1.45-2.14 3.02 1.74z" fill="#e1e6e9"/><path d="m621.72 178.01-8.92-5.15-.02 6.7 3.02 1.73 1.43 3.81 1.45-2.14 3.02 1.74z" fill="#ebf0f3"/><path d="m632.27 205.91-8.91-5.15-.02 6.69 3.01 1.74 1.43 3.81 1.45-2.15 3.02 1.75z" fill="#ebf0f3"/></g><g clip-path="url(#g)"><path d="m363.65 19.72-342.32 197.64.08 30.23 342.33-197.64z" fill="#00c389"/><path d="m170.78 347.76-.47-163.82 160.63-92.75.47 163.81zm193.22-297.96-342.58 197.81.58 197.71 342.6-197.8z" fill="#66deba"/><path d="m182.61 284.2-.27-93.95 136.66-78.9.27 94zm148.33-193-160.63 92.74.47 163.82 160.63-92.76-.47-163.83" fill="#fff"/><path d="m212 260.45v-1.67l2.83-1.64v1.67zm0-7.81v-1.64l2.83-1.63v1.63zm0-7.81v-1.66l2.84-1.64v1.67l-2.83 1.63m0-7.82v-1.66l2.84-1.64v1.67l-2.95 1.62m0-7.8v-1.67l2.83-1.64v1.67l-2.84 1.64m58.3-3.61-.1-35.57 8.22-4.75.1 35.57zm-46.66 26.93-.1-37.42 8.22-4.75.11 37.43zm-11.68-31.12v-1.66l2.83-1.64v1.66l-2.84 1.64m35 17.68-.12-44 8.22-4.75.13 44zm-35-25.5v-1.67l2.84-1.63v1.66l-2.83 1.64m57.44-28.92v-7.36l9.79-5.65v7.35l-3.32 1.92-1.58 4.18-1.59-2.35-3.31 1.91m-46.66 25.22v-7.35l9.78-5.65v7.35l-3.31 1.91-1.58 4.19-1.59-2.33-3.31 1.91m12.57 35.93-.18-52.84 8.22-4.75.15 52.87-8.22 4.74m-23.37-40v-1.66l2.84-1.64v1.67l-2.83 1.63m34.13-15.86v-7.35l9.8-5.66v7.35l-3.33 1.92-1.57 4.19-1.59-2.45zm12.58 42.38-.17-60.08 8.23-4.74.17 60.08zm-46.71-34.38v-1.7l2.84-1.63v1.66zm22.44-10.58v-7.35l9.78-5.65v7.35l-3.31 1.91-1.58 4.19-1.59-2.36-3.31 1.91m-22.47 2.76v-1.67l2.83-1.63v1.66l-2.84 1.64m45.78-22.68v-7.35l9.79-5.65v7.35l-3.31 1.89-1.57 4.18-1.59-2.36-3.31 1.91m-43.3 15.53 2.9-9.13 2.93 5.76-2.06 1.2.21 74.78 65.17-37.61v-2.4l6.48-.39-6.46 7.08v-2.38l-65.18 37.63-.84.49-.84.48-.22-76.71zm104.77-71.65-136.65 78.9.27 93.95 136.65-78.9-.27-94" fill="#276093"/><g fill="#e1e6e9"><path d="m217.13 173.88-2.9 9.12 2.08-1.2.22 76.71.84-.48.84-.49 65.18-37.63.01 2.38 6.46-7.08-6.48.39v2.38l-65.18 37.64-.21-74.79 2.07-1.19z"/><path d="m214.59 186.84-2.83 1.64v1.67l2.84-1.64z"/><path d="m214.62 194.67-2.84 1.63v1.67l2.84-1.64z"/><path d="m214.64 202.47-2.84 1.64.01 1.66 2.83-1.63z"/><path d="m214.66 210.28-2.84 1.63.01 1.67 2.83-1.64z"/><path d="m214.68 218.1-2.83 1.64v1.66l2.84-1.64z"/><path d="m214.7 225.9-2.83 1.64v1.67l2.84-1.64z"/><path d="m214.73 233.71-2.84 1.64.01 1.66 2.83-1.63z"/><path d="m214.75 241.53-2.84 1.64.01 1.66 2.83-1.63z"/><path d="m214.77 249.34-2.83 1.63v1.67l2.84-1.64z"/><path d="m214.79 257.14-2.83 1.64v1.66l2.84-1.63z"/></g><path d="m231.63 210.36-8.22 4.75.1 37.42 8.23-4.75z" fill="#e56353"/><path d="m243.25 188.2-8.22 4.75.15 52.86 8.22-4.75z" fill="#27a2db"/><path d="m254.94 190.37-8.22 4.75.12 43.96 8.23-4.75z" fill="#fcd462"/><path d="m266.56 167.51-8.23 4.74.17 60.08 8.23-4.74z" fill="#44c4a1"/><path d="m278.29 185.28-8.22 4.75.1 35.57 8.22-4.75z" fill="#27a2db"/><path d="m232.37 196.88-9.78 5.65.02 7.35 3.31-1.91 1.59 2.36 1.58-4.19 3.31-1.91z" fill="#ebf0f3"/><path d="m243.99 174.39-9.78 5.65.02 7.35 3.31-1.91 1.59 2.36 1.58-4.19 3.3-1.91z" fill="#e1e6e9"/><path d="m255.7 176.94-9.8 5.66.02 7.35 3.31-1.91 1.59 2.36 1.57-4.19 3.33-1.92z" fill="#e1e6e9"/><path d="m267.31 154.47-9.79 5.65.02 7.35 3.31-1.91 1.59 2.36 1.57-4.18 3.32-1.92z" fill="#ebf0f3"/><path d="m279.05 171.65-9.8 5.65.02 7.36 3.31-1.91 1.59 2.35 1.58-4.18 3.31-1.92z" fill="#ebf0f3"/></g><path d="m678.8 499.62s-.62 4.86.09 5.15a6.5 6.5 0 0 0 4.33.86 60.47 60.47 0 0 1 6.51-1.71c2.65-.39 9.52.42 10.7-1.41s0-5.64 0-5.64" fill="#ffe0de"/><path d="m700.42 496.9c-.53-3-4.91-1.72-7-3.06-3.78-2.44-4-7.82-3.64-11.83l-8.41-2.92-1.66 9.65-1 10.93a4.51 4.51 0 0 0 3.75 1.91l5.61-1.24c3.66-.34 12.72-1.34 12.35-3.44z" fill="#56403d"/><path d="m690.52 505.39s-.62 4.85.1 5.15a6.46 6.46 0 0 0 4.32.86 61.09 61.09 0 0 1 6.51-1.71c2.66-.39 9.53.42 10.71-1.41s0-5.64 0-5.64" fill="#ffe0de"/><path d="m712.15 502.62c-.54-3-4.91-1.73-7-3.07-3.78-2.44-4-7.81-3.63-11.83l-8.41-2.92-1.66 9.66-1 10.93a4.56 4.56 0 0 0 3.76 1.91l5.61-1.25c3.64-.33 12.7-1.35 12.33-3.43z" fill="#56403d"/><path d="m678.37 473.09-2.13 11.34s3.26 3.36 14.26 3 0-20.08 0-20.08" fill="#e85b5b"/><ellipse cx="664.1" cy="499.55" fill="#56403d" rx="15.65" ry="5.81"/><path d="m661.46 473.54.61 23.41h4.67v-23.41" fill="#56403d"/><path d="m694.2 439.76c-4.69 1-9.41 1.82-14.18 2.37a.78.78 0 0 0 -.54.3q-.83-2.48-1.41-5c-.21-1-1.7-.56-1.49.41a53.55 53.55 0 0 0 3.89 11.16c.42.9 1.75.12 1.33-.79-.71-1.49-1.33-3-1.9-4.56h.1q7.35-.85 14.59-2.44c.99-.21.58-1.66-.39-1.45z" fill="#008074"/><path d="m681.54 450.62a20.61 20.61 0 0 1 -4.74 5.45c-.77.63.33 1.71 1.08 1.09a21.67 21.67 0 0 0 5-5.76.76.76 0 0 0 -.27-1 .78.78 0 0 0 -1.07.22z" fill="#008074"/><path d="m671.94 445.61s12.27-9.84 20.42-11 12.4 7.68 11.81 13.59-20.08 9.16-20.08 9.16" fill="#edbab9"/><path d="m678.48 448.88c1.59-1.47 22.42-11.19 29.75-6.75s6.87 7.72 5.94 13.13-7.95 34.49-7.95 34.49a26.48 26.48 0 0 1 -16.66.78l2.05-21.63-27.75-15.15" fill="#ff7e7b"/><path d="m663.31 414.08c1.1.81 10.61 1.95 12.6 6.34s5 27 5 27-5.7 8.5-15.58 5.48c-2.94-.9-18.14-28.69-18.57-31.57-1.03-7.53 16.55-7.25 16.55-7.25z" fill="#e15c39"/><path d="m644.55 462.9a25.39 25.39 0 0 1 -1.18-3.51c-2.33-9.14-3.86-43.45 11.57-42.05 16.92 1.53 11.21 43.91 28.36 42.61s24.18 3.15 17.16 9.8c-14.02 13.25-47.31 13.58-55.91-6.85z" fill="#ffb951"/><path d="m669.38 401.84c.11.69 1.33 10.52-1.58 12.73s-9.44-3-9.6-5.61-2.37-8 .41-9.37 9.99-2.59 10.77 2.25z" fill="#ffe0de"/><path d="m667 394.94-.33-.21c-3.72-2.19-9.87-1.65-13 1.5a15.41 15.41 0 0 0 -2.15 3 23 23 0 0 1 -1.49 2.29 14.9 14.9 0 0 0 4.17 10.61 17.6 17.6 0 0 0 8.9 2.72c1.22-3.65-.54-7.8 1.2-11.46a8.35 8.35 0 0 1 3.87-3.74 8.29 8.29 0 0 0 -1.17-4.71z" fill="#ad7024"/><path d="m665.8 408.63a4.08 4.08 0 0 0 -2.28-2.43c-1-.4-2.3-.52-2.88.54-1.33 2.35 1.88 4 3.58 4.65.8.3 1.14-1 .36-1.33l-.28-.11h.09a.59.59 0 0 0 .64-.55v-.06c.44.16.97-.16.77-.71z" fill="#ffe0de"/><path d="m691.63 404.54 27.36 17.14-4.54 19.3-25.56-17.46z" fill="#59db72"/><path d="m688.89 423.51s-14 7-13.8 7.14 24.69 18.57 24.69 18.57l14.67-8.2z" fill="#3129a3"/><path d="m694.81 438.25s3.71-3.33 4.27-3.6a2.82 2.82 0 0 1 2.41.68c.6.56 1.44.36 2.1 1.07s2.35 3.24 1.87 3.9-1.82-.94-2.27-1.32 0 1.32-.63 2.34-4.5 2-5.54 1.79" fill="#ffe0de"/><path d="m676.53 423.51s4.55 15.53 7.22 15.59 11-2.78 11-2.78 3.61 3.69 3.2 6-15.24 10.61-21.44 9.09-9.19-22.92-9.06-23.33 9.08-4.57 9.08-4.57z" fill="#e15c39"/><path d="m692.37 429a20.09 20.09 0 0 0 -2.27-1.48c-.69-.32-1.33-.68-1.94-1a2.37 2.37 0 0 0 -1.84-.29 48.6 48.6 0 0 0 -3.85 3.16c-.74.53-1.5 1.05-2.28 1.54a.66.66 0 0 0 -.22.91.67.67 0 0 0 .74.3c.38-.1.76-.22 1.13-.35a4.09 4.09 0 0 0 0 .7 3.38 3.38 0 0 0 .42 2.35.6.6 0 0 0 .19.23l-.49.18c-.8.29-.45 1.58.35 1.33l4.57-1.67a6.52 6.52 0 0 0 2.93-1.67.67.67 0 0 0 0-.94.67.67 0 0 0 -.67-.18c-.33.08-.65.19-1 .29.73-1 1.84-2.18 2.23-1.85a2.65 2.65 0 0 0 3.05.1c.77-.78-.51-1.34-1.05-1.66z" fill="#ffe0de"/><path d="m682.45 429.45s-4.74.63-8.28.72a63.2 63.2 0 0 0 -4 6.1c.27 1.33.37 2.65.66 4a2.49 2.49 0 0 1 0 .77c6.3-1 13-3.64 13.56-5 .87-2.28-1.94-6.59-1.94-6.59z" fill="#e15c39"/><path d="m656.65 398.81a3 3 0 0 0 -2.26-2.23c-3.29-.87-7.62 1.13-8.61 4.53a7 7 0 0 0 5.4 8.31 6.62 6.62 0 0 0 7.19-6 4.19 4.19 0 0 0 0-.5 5.74 5.74 0 0 0 -1.72-4.11z" fill="#a36018"/><path d="m768.15 525.79c0 .55-.44 7.21.31 8s2.65 4.53 5.1 4.7 4.66-.31 5.11 2.27-13.67 3.42-13.67 3.42-1.49-5.91-2.12-5.74-.67 6.61-.67 6.61l-2.65.55-2.65-1.75 1.09-11.35 1.71-9.64" fill="#3129a3"/><path d="m778.75 535.31c-.35 4-.15 9.39 3.63 11.83 2.07 1.33 6.44.11 7 3.07.46 2.58-13.68 3.54-13.68 3.54s-1.52-5.92-2.16-5.73-.57 6.54-.57 6.54l-2.65.58-2.66-1.74 1-11.35 1.66-9.66" fill="#3129a3"/><path d="m755.56 520.65-2.08 11.35s3.26 3.35 14.26 3 0-20.09 0-20.09" fill="#edbab9"/><ellipse cx="741.32" cy="547.14" fill="#56403d" rx="15.65" ry="5.81"/><path d="m738.68 521.12.61 23.41h4.67v-23.41" fill="#56403d"/><path d="m771.48 487.33q-7 1.55-14.18 2.38a.77.77 0 0 0 -.54.29q-.82-2.46-1.41-5c-.21-1-1.7-.55-1.49.41a54.12 54.12 0 0 0 3.89 11.21c.43.9 1.75.12 1.33-.78-.71-1.5-1.33-3-1.9-4.56h.11q7.35-.87 14.59-2.44c.93-.23.51-1.72-.4-1.51z" fill="#008074"/><path d="m758.76 498.2a20.8 20.8 0 0 1 -4.75 5.45c-.77.62.33 1.71 1.09 1.09a22.2 22.2 0 0 0 5-5.76.77.77 0 0 0 -1.33-.78z" fill="#008074"/><path d="m749.16 493.18s12.27-9.84 20.41-11 12.4 7.68 11.82 13.6-20.08 9.15-20.08 9.15" fill="#edbab9"/><path d="m755.7 496.46c1.59-1.47 22.41-11.19 29.75-6.75s6.87 7.72 5.94 13.13-8 34.49-8 34.49a26.54 26.54 0 0 1 -16.66.78l2.06-21.58-27.79-15.16" fill="#ffe0de"/><path d="m740.52 461.67c1.1.81 10.61 1.95 12.6 6.34s5 27 5 27-5.71 8.5-15.59 5.48c-2.93-.91-18.13-28.69-18.57-31.57-1.03-7.54 16.56-7.25 16.56-7.25z" fill="#006d29"/><path d="m721.77 510.48a25.89 25.89 0 0 1 -1.19-3.51c-2.33-9.14-3.85-43.46 11.57-42.05 16.93 1.52 11.21 43.9 28.36 42.6s24.18 3.16 17.16 9.8c-14.02 13.28-47.31 13.59-55.9-6.84z" fill="#ffb951"/><path d="m746.6 449.41c.1.69 1.32 10.52-1.58 12.74s-9.45-3-9.61-5.62-2.37-7.95.42-9.36 9.98-2.61 10.77 2.24z" fill="#ffe0de"/><path d="m743.82 442.32c-3.72-2.19-9.86-1.65-13 1.49a15.31 15.31 0 0 0 -2.14 3 25 25 0 0 1 -1.5 2.29 14.87 14.87 0 0 0 4.18 10.61 16.89 16.89 0 0 0 10.51 2.65c-.31-1.32-.59-2.65-.81-4-.34-2.17-.86-4.81.75-6.64a2.25 2.25 0 0 1 2.29-.77l.11-.06 3.18.2a7.22 7.22 0 0 0 -3.57-8.77z" fill="#e0902f"/><path d="m728.65 448.22c-3.54-6.37-14.27-3.24-15.07 3.5a13.28 13.28 0 0 0 2.43 9.09c2.55 3.18 2.65 10.28-1.75 15.45s-.81 11.39 4.3 13.59 16.16 2.14 15.78-6.8-11.17-20.36-11-26.53 6.37-2.65 6.37-2.65" fill="#e0902f"/><path d="m730.36 448.47a2.65 2.65 0 0 0 -2.65-2.65 2.71 2.71 0 0 0 -2.65 2.65 22.77 22.77 0 0 0 -.08 3.2 2.65 2.65 0 1 0 5.3 0 26.25 26.25 0 0 1 .08-3.2z" fill="#3129a3"/><path d="m743 456.18a4.08 4.08 0 0 0 -2.28-2.43c-1-.4-2.29-.52-2.88.54-1.32 2.35 1.89 4 3.59 4.65.79.3 1.14-1 .35-1.33l-.27-.11h.09a.58.58 0 0 0 .63-.55.13.13 0 0 0 0-.06.55.55 0 0 0 .77-.71z" fill="#ffe0de"/><path d="m768.84 452.12 27.36 17.13-4.53 19.31-25.56-17.46z" fill="#68e1fd"/><path d="m766.11 471.1s-14 7-13.81 7.15 24.7 18.5 24.7 18.5l14.67-8.2z" fill="#3129a3"/><path d="m772 485.82s3.72-3.33 4.27-3.59a2.81 2.81 0 0 1 2.42.67c.6.56 1.43.36 2.09 1.08s2.35 3.24 1.87 3.9-1.81-.94-2.26-1.33 0 1.33-.64 2.35-4.5 2-5.53 1.79" fill="#ffe0de"/><path d="m753.75 471.1s4.55 15.58 7.2 15.58 11-2.77 11-2.77 3.61 3.69 3.2 6-15.24 10.62-21.43 9.1-9.2-22.92-9.06-23.33 9.09-4.58 9.09-4.58z" fill="#006d29"/><path d="m769.58 476.54a20.17 20.17 0 0 0 -2.27-1.49c-.68-.32-1.32-.67-1.93-1a2.36 2.36 0 0 0 -1.85-.29 47.24 47.24 0 0 0 -3.86 3.21c-.74.53-1.49 1.05-2.28 1.54a.66.66 0 0 0 .52 1.2 10.54 10.54 0 0 0 1.13-.34 4.09 4.09 0 0 0 0 .7 3.38 3.38 0 0 0 .42 2.35.71.71 0 0 0 .19.23l-.49.18c-.8.29-.45 1.58.36 1.33l4.56-1.67a6.52 6.52 0 0 0 2.92-1.69.67.67 0 0 0 0-.94.67.67 0 0 0 -.67-.18c-.33.08-.65.19-1 .29.73-1 1.85-2.19 2.23-1.85a2.66 2.66 0 0 0 3 .1c.84-.82-.41-1.35-.98-1.68z" fill="#ffe0de"/><path d="m759.66 477s-4.73.62-8.28.71a65.2 65.2 0 0 0 -4 6.11c.26 1.32.37 2.65.66 4a3.22 3.22 0 0 1 0 .76c6.3-1 13-3.63 13.55-5 .88-2.2-1.93-6.58-1.93-6.58z" fill="#006d29"/><path d="m849.49 587.3c-.53-3-4.91-1.73-7-3.07-3.78-2.44-4-7.81-3.63-11.83l-8.41-2.92-1.66 9.66-1 10.93a4.53 4.53 0 0 0 3.75 1.91l5.61-1.25c3.65-.33 12.71-1.36 12.34-3.43z" fill="#171110"/><path d="m861.21 593c-.53-3-4.9-1.73-7-3.07-3.78-2.44-4-7.81-3.63-11.83l-8.41-2.92-1.66 9.66-1 10.93a4.55 4.55 0 0 0 3.76 1.91l5.61-1.25c3.65-.31 12.7-1.33 12.33-3.43z" fill="#171110"/><path d="m827.44 568.94-2.13 13.26s3.26 3.93 14.26 3.46 0-23.49 0-23.49" fill="#002a47"/><ellipse cx="813.17" cy="589.95" fill="#56403d" rx="15.65" ry="5.81"/><path d="m810.53 563.94.61 23.41h4.67v-23.41" fill="#56403d"/><path d="m843.27 530.16q-7 1.53-14.18 2.37a.83.83 0 0 0 -.55.29c-.54-1.64-1-3.32-1.4-5-.21-1-1.7-.56-1.49.41a53.66 53.66 0 0 0 3.89 11.2c.42.91 1.75.12 1.32-.78-.7-1.5-1.32-3-1.89-4.56h.1q7.35-.87 14.59-2.44c.99-.22.58-1.71-.39-1.49z" fill="#008074"/><path d="m830.61 541a20.65 20.65 0 0 1 -4.75 5.45c-.77.62.34 1.71 1.09 1.09a21.67 21.67 0 0 0 5-5.76.77.77 0 0 0 -1.33-.78z" fill="#008074"/><path d="m821 536s12.27-9.85 20.41-11 12.41 7.68 11.82 13.59-20.08 9.15-20.08 9.15" fill="#edbab9"/><path d="m827.55 540.62c1.59-1.72 22.42-13.09 29.75-7.89s6.87 9 5.94 15.36-8 40.33-8 40.33a22.92 22.92 0 0 1 -16.66.92l2.1-25.34-27.75-17.71" fill="#003255"/><path d="m812.37 504.48c1.11.81 10.62 1.95 12.61 6.34s5 27 5 27-5.7 8.5-15.59 5.47c-2.93-.9-18.13-28.69-18.57-31.56-1.02-7.53 16.55-7.25 16.55-7.25z" fill="#cbf2e7"/><path d="m793.62 553.3a24.13 24.13 0 0 1 -1.18-3.51c-2.34-9.14-3.86-43.46 11.56-42 16.93 1.52 11.21 43.9 28.36 42.6s24.18 3.16 17.17 9.81c-14.02 13.22-47.32 13.53-55.91-6.9z" fill="#ffb951"/><path d="m818.45 492.23c.11.69 1.33 10.52-1.58 12.74s-9.44-3-9.6-5.61-2.38-8 .41-9.37 9.99-2.61 10.77 2.24z" fill="#ffe0de"/><path d="m816 485.34-.33-.22c-3.73-2.18-9.87-1.64-13 1.5a15.72 15.72 0 0 0 -2.15 3 20.62 20.62 0 0 1 -1.5 2.3 15 15 0 0 0 4.18 10.61 17.57 17.57 0 0 0 8.9 2.72c1.22-3.65-.54-7.8 1.2-11.46a8.3 8.3 0 0 1 3.87-3.74 8.27 8.27 0 0 0 -1.17-4.71z" fill="#664215"/><path d="m814.87 499a4.09 4.09 0 0 0 -2.28-2.42c-1-.4-2.3-.52-2.88.54-1.33 2.35 1.88 4 3.58 4.64.8.31 1.14-1 .36-1.32l-.28-.11h.09a.6.6 0 0 0 .64-.55v-.06c.44.18.97-.14.77-.72z" fill="#ffe0de"/><path d="m840.69 494.94 27.37 17.14-4.54 19.3-25.56-17.46z" fill="#bef1fd"/><path d="m838 513.91s-14 7-13.81 7.13 24.7 18.57 24.7 18.57l14.67-8.19z" fill="#3129a3"/><path d="m843.88 528.64s3.71-3.33 4.27-3.59a2.77 2.77 0 0 1 2.41.68c.6.55 1.43.35 2.1 1.07s2.35 3.24 1.87 3.9-1.82-.94-2.27-1.33 0 1.33-.64 2.35-4.49 2-5.53 1.79" fill="#ffe0de"/><path d="m825.6 513.91s4.55 15.53 7.21 15.58 11-2.77 11-2.77 3.61 3.69 3.2 6-15.24 10.61-21.44 9.1-9.19-22.92-9.06-23.33 9.09-4.58 9.09-4.58z" fill="#cbf2e7"/><path d="m841.44 519.36a21.11 21.11 0 0 0 -2.27-1.49c-.69-.31-1.33-.67-1.94-1a2.34 2.34 0 0 0 -1.84-.29 48.6 48.6 0 0 0 -3.85 3.16c-.74.53-1.5 1-2.28 1.54a.66.66 0 0 0 -.22.91.65.65 0 0 0 .74.29 11.1 11.1 0 0 0 1.12-.34v.7a3.45 3.45 0 0 0 .43 2.35.65.65 0 0 0 .18.22l-.49.19c-.79.29-.45 1.58.36 1.33l4.57-1.67a6.5 6.5 0 0 0 2.93-1.68.66.66 0 0 0 0-.93.67.67 0 0 0 -.67-.18c-.34.08-.65.19-1 .29.73-1 1.84-2.19 2.23-1.86a2.65 2.65 0 0 0 3 .11c.81-.74-.44-1.29-1-1.65z" fill="#ffe0de"/><path d="m831.51 519.85s-4.73.62-8.27.72a63.2 63.2 0 0 0 -4 6.1c.26 1.32.37 2.65.66 4a2.49 2.49 0 0 1 0 .77c6.3-1 13-3.64 13.56-5 .87-2.28-1.95-6.59-1.95-6.59z" fill="#cbf2e7"/><path d="m636 575.29c0-.33-.63-.54-1.46-.81-6.63-2.16-8.54-2.06-9.71-3.08s-2-3.85.58-11l-8.41-2.93-1.66 9.66c-.26 3.53-.51 7-.77 10.58l6.81.75.34-1.38 2.48 1c5.64-.73 11.8-1.78 11.8-2.79z" fill="#a63232"/><path d="m647.69 581c0-.36-1.18-.46-5.6-1.33-5.75-1.13-6.31-1.46-6.69-1.84-.62-.64-2.38-3 1.69-11.72l-8.41-2.92-1.68 9.66-.61 11.45 6.65.46c0-.34.05-.69.08-1l2.29.71c10.23-2 12.33-2.95 12.28-3.47z" fill="#a63232"/><ellipse cx="599.65" cy="577.94" fill="#56403d" rx="15.65" ry="5.81"/><path d="m597.01 551.93.61 23.41h4.67v-23.41" fill="#56403d"/><path d="m629.74 518.14q-7 1.54-14.18 2.38a.77.77 0 0 0 -.54.29q-.82-2.46-1.41-5c-.21-1-1.69-.55-1.48.41a54.09 54.09 0 0 0 3.87 11.18c.43.9 1.76.12 1.33-.78-.7-1.5-1.33-3-1.9-4.56h.11q7.35-.87 14.59-2.44c.99-.2.58-1.69-.39-1.48z" fill="#008074"/><path d="m617.09 529a20.8 20.8 0 0 1 -4.75 5.45c-.77.62.33 1.71 1.09 1.09a22.2 22.2 0 0 0 5-5.76.77.77 0 0 0 -1.33-.78z" fill="#008074"/><path d="m607.49 524s12.27-9.84 20.41-11 12.4 7.68 11.82 13.6-20.08 9.15-20.08 9.15" fill="#edbab9"/><path d="m614 526.81c1.59-1.39 22.41-10.54 29.75-6.36s6.87 7.27 5.94 12.36-8 32.46-8 32.46a44.35 44.35 0 0 1 -8.27 1.63 46.94 46.94 0 0 1 -23.61-4l1.69-17.9-12.09-13.63" fill="#96aec7"/><path d="m598.85 492.46c1.1.81 10.61 2 12.6 6.34s5 27 5 27-5.71 8.51-15.59 5.48c-2.93-.9-18.13-28.69-18.57-31.57-1.01-7.52 16.56-7.25 16.56-7.25z" fill="#ed9d88"/><path d="m580.1 541.29a24.58 24.58 0 0 1 -1.19-3.51c-2.33-9.14-3.86-43.46 11.57-42 16.93 1.52 11.21 43.9 28.36 42.6s24.18 3.16 17.16 9.8c-14 13.23-47.31 13.54-55.9-6.89z" fill="#ffb951"/><path d="m604.93 480.22c.1.69 1.32 10.52-1.58 12.74s-9.45-3-9.61-5.62-2.37-7.95.42-9.36 9.98-2.61 10.77 2.24z" fill="#ffe0de"/><path d="m597.9 471.38a12.25 12.25 0 0 0 -8.91 2.27 13.21 13.21 0 0 0 -4.41 6.57c-2 5.81.58 9.15.29 14.53-.19 3.56-1.66 8.67-7.81 14.68 7.19 6.3 15.52 8.18 20.66 4.77a10.57 10.57 0 0 0 4.17-5.26c1.25-3.74-.82-5.65-2.49-14.5-.51-.92-3.4-6.29-1.18-9.35a4.49 4.49 0 0 1 .56-.61 10.72 10.72 0 0 0 1.63-.77 11.12 11.12 0 0 0 4.2-4.55 9.11 9.11 0 0 0 -1.1-3.58 8.68 8.68 0 0 0 -5.61-4.2z" fill="#e0bb8d"/><path d="m601.34 487a4.09 4.09 0 0 0 -2.28-2.42c-1-.4-2.29-.52-2.88.54-1.32 2.35 1.89 4 3.59 4.64.79.31 1.14-1 .35-1.32l-.27-.11h.09a.59.59 0 0 0 .63-.56.07.07 0 0 0 0 0 .56.56 0 0 0 .77-.77z" fill="#ffe0de"/><path d="m627.17 482.93 27.36 17.13-4.53 19.3-25.56-17.45z" fill="#68e1fd"/><path d="m624.44 501.9s-14 7-13.81 7.13 24.7 18.57 24.7 18.57l14.67-8.2z" fill="#3129a3"/><path d="m630.35 516.63s3.72-3.33 4.27-3.59a2.81 2.81 0 0 1 2.42.67c.6.56 1.43.36 2.09 1.08s2.35 3.23 1.87 3.9-1.81-.94-2.26-1.33 0 1.33-.64 2.35-4.5 2-5.53 1.79" fill="#ffe0de"/><path d="m627.91 507.35a20.17 20.17 0 0 0 -2.27-1.49c-.69-.32-1.32-.68-1.93-1a2.36 2.36 0 0 0 -1.85-.29 46.35 46.35 0 0 0 -3.84 3.16c-.75.53-1.5 1-2.28 1.53a.66.66 0 0 0 .51 1.21 10.54 10.54 0 0 0 1.13-.34 4.09 4.09 0 0 0 0 .7 3.34 3.34 0 0 0 .43 2.35.55.55 0 0 0 .18.22l-.49.19c-.8.29-.45 1.58.36 1.32l4.56-1.67a6.34 6.34 0 0 0 2.93-1.67.66.66 0 0 0 0-.94.66.66 0 0 0 -.67-.17c-.33.08-.65.18-1 .29.73-1 1.85-2.19 2.23-1.86a2.65 2.65 0 0 0 3 .11c.82-.74-.45-1.29-1-1.65z" fill="#ffe0de"/><path d="m618 507.84s-4.73.62-8.28.71a67.37 67.37 0 0 0 -4 6.11c.27 1.32.38 2.65.67 4a3.3 3.3 0 0 1 0 .77c6.3-1 13-3.63 13.55-5 .86-2.28-1.94-6.59-1.94-6.59z" fill="#d48c79"/><path d="m612.08 501.9s4.54 15.53 7.21 15.58 11-2.77 11-2.77 3.6 3.69 3.19 6-15.24 10.61-21.43 9.1-9.15-22.9-9.05-23.31 9.08-4.6 9.08-4.6z" fill="#ed9d88"/><path d="m705.28 599.67c0 .52-.43 6.72.31 7.42s2.65 4.22 5.1 4.38 4.66-.29 5.11 2.12-13.69 3.23-13.69 3.23l-2.21-.62-.57 1.42-5.33-1.11 1.06-10.59 1.71-9" fill="#333"/><path d="m715.88 608.54c-.34 3.71-.14 8.76 3.64 11 2.06 1.24 6.43.1 7 2.86.46 2.41-13.68 3.3-13.68 3.3l-1.84-1.5-.9 1.84-2.71-.07-2.59-.56 1-10.58 1.66-9" fill="#333"/><path d="m692.7 597.7-2.09 12.41s3.27 3.66 14.26 3.23 0-21.94 0-21.94" fill="#2d5d7d"/><ellipse cx="678.45" cy="621.22" fill="#56403d" rx="15.65" ry="5.81"/><path d="m675.81 595.2.61 23.41h4.67v-23.41" fill="#56403d"/><path d="m708.61 561.41q-7 1.55-14.18 2.38a.77.77 0 0 0 -.54.29c-.55-1.65-1-3.32-1.41-5-.21-1-1.69-.56-1.48.41a53.52 53.52 0 0 0 3.88 11.21c.43.9 1.75.12 1.33-.78-.7-1.5-1.33-3-1.9-4.57h.11a147.5 147.5 0 0 0 14.58-2.47c.94-.19.53-1.68-.39-1.47z" fill="#008074"/><path d="m695.89 572.28a20.8 20.8 0 0 1 -4.75 5.45c-.77.62.33 1.71 1.09 1.08a21.79 21.79 0 0 0 5-5.75.77.77 0 1 0 -1.33-.78z" fill="#008074"/><path d="m686.29 567.26s12.27-9.84 20.41-11 12.4 7.68 11.82 13.6-20.08 9.14-20.08 9.14" fill="#edbab9"/><path d="m692.83 571.27c1.59-1.61 22.41-12.23 29.75-7.38s6.87 8.44 5.94 14.35-8 37.68-8 37.68a24.43 24.43 0 0 1 -16.66.85l2.14-23.58-27.9-16.56" fill="#346c91"/><path d="m683.73 523.49c.1.69 1.32 10.52-1.58 12.73s-9.44-3-9.6-5.61-2.38-8 .41-9.36 10.04-2.62 10.77 2.24z" fill="#ffe0de"/><path d="m673.89 515.4a11.61 11.61 0 0 0 -5.89 2.49 10.18 10.18 0 0 0 -3.63 6.31 13.62 13.62 0 0 0 3.82 9.21 3.5 3.5 0 0 0 .76.62 16.93 16.93 0 0 0 5.63 2.15 3.18 3.18 0 0 0 3.66-3.7c-.35-2.16-.87-4.8.74-6.63a2.25 2.25 0 0 1 2.29-.77l.11-.06a6.24 6.24 0 0 0 3.46-3 3.73 3.73 0 0 0 .4-2.36 3.93 3.93 0 0 0 -1.61-2.31c-2.23-1.86-6.01-2.62-9.74-1.95z" fill="#603813"/><path d="m680.15 530.25a4.12 4.12 0 0 0 -2.28-2.42c-1-.4-2.3-.52-2.88.54-1.33 2.35 1.88 4 3.58 4.64.79.31 1.14-1 .36-1.32l-.28-.11h.09a.61.61 0 0 0 .64-.55v-.03a.56.56 0 0 0 .77-.75z" fill="#ffe0de"/><path d="m705.97 526.2 27.37 17.13-4.54 19.3-25.56-17.45z" fill="#68bafd"/><path d="m703.24 545.18s-14 7-13.81 7.15 24.7 18.5 24.7 18.5l14.67-8.2z" fill="#3129a3"/><path d="m709.12 559.9s3.71-3.33 4.27-3.59a2.79 2.79 0 0 1 2.41.67c.6.56 1.43.36 2.1 1.08s2.34 3.23 1.87 3.9-1.82-1-2.27-1.33 0 1.33-.64 2.35-4.49 2-5.53 1.79" fill="#ffe0de"/><path d="m690.88 545.18s4.55 15.58 7.2 15.58 11-2.77 11-2.77 3.6 3.69 3.19 6-15.24 10.61-21.43 9.1-9.19-22.92-9.06-23.33 9.1-4.58 9.1-4.58z" fill="#470f70"/><path d="m706.72 550.61a21 21 0 0 0 -2.27-1.48c-.69-.32-1.33-.68-1.94-1a2.3 2.3 0 0 0 -1.84-.29 47.24 47.24 0 0 0 -3.86 3.21c-.75.53-1.5 1-2.28 1.53a.66.66 0 0 0 .51 1.21 10.54 10.54 0 0 0 1.13-.34 4.09 4.09 0 0 0 0 .7 3.39 3.39 0 0 0 .42 2.35.67.67 0 0 0 .19.22l-.49.19c-.8.29-.45 1.58.36 1.33l4.56-1.68a6.34 6.34 0 0 0 2.93-1.67.66.66 0 0 0 0-.94.66.66 0 0 0 -.67-.17c-.33.08-.65.18-1 .29.73-1 1.85-2.19 2.23-1.86a2.65 2.65 0 0 0 3 .11c.83-.84-.41-1.32-.98-1.71z" fill="#ffe0de"/><path d="m696.79 551.11s-4.73.62-8.27.71a63.2 63.2 0 0 0 -4 6.1c.26 1.33.37 2.66.66 4a2.49 2.49 0 0 1 0 .77c6.3-1 13-3.63 13.56-5 .87-2.23-1.95-6.58-1.95-6.58z" fill="#370c57"/><path d="m677.65 535.75c1.1.8 10.61 2 12.6 6.34s5 27 5 27-5.71 8.5-15.59 5.47c-2.93-.9-18.13-28.69-18.57-31.57-1.02-7.54 16.56-7.24 16.56-7.24z" fill="#470f70"/><path d="m658.9 584.56a24.25 24.25 0 0 1 -1.18-3.52c-2.34-9.14-3.86-43.45 11.56-42 16.93 1.52 11.21 43.9 28.36 42.6s24.18 3.16 17.17 9.8c-14.02 13.24-47.32 13.56-55.91-6.88z" fill="#ffb951"/><path d="m785 665.68c-.53-2.95-4.91-1.72-7-3.06-3.78-2.44-4-7.81-3.64-11.83l-8.36-2.92-1.65 9.66-1 10.93a4.58 4.58 0 0 0 3.76 1.91l5.61-1.25c3.62-.33 12.68-1.37 12.28-3.44z" fill="#171110"/><path d="m796.76 671.4c-.53-3-4.91-1.72-7-3.06-3.78-2.44-4-7.82-3.63-11.84l-8.41-2.91-1.66 9.65-1 10.93a4.51 4.51 0 0 0 3.75 1.91l5.61-1.24c3.65-.34 12.71-1.36 12.34-3.44z" fill="#171110"/><path d="m763 647.32-2.14 13.27s3.26 3.92 14.26 3.46 0-23.49 0-23.49" fill="#002a47"/><ellipse cx="748.71" cy="668.34" fill="#56403d" rx="15.65" ry="5.81"/><path d="m746.08 642.33.6 23.41h4.67v-23.41" fill="#56403d"/><path d="m778.81 608.54q-7 1.55-14.18 2.38a.77.77 0 0 0 -.54.29c-.55-1.65-1-3.32-1.41-5-.21-1-1.7-.56-1.48.41a53.52 53.52 0 0 0 3.88 11.21c.43.9 1.75.12 1.33-.78-.7-1.5-1.33-3-1.9-4.57h.11a147.5 147.5 0 0 0 14.59-2.48c.98-.19.57-1.67-.4-1.46z" fill="#008074"/><path d="m766.16 619.4a20.69 20.69 0 0 1 -4.75 5.46c-.77.62.33 1.71 1.09 1.08a21.93 21.93 0 0 0 5-5.75.77.77 0 1 0 -1.32-.79z" fill="#008074"/><path d="m756.55 614.39s12.27-9.84 20.42-11 12.4 7.68 11.82 13.6-20.09 9.15-20.09 9.15" fill="#edbab9"/><path d="m763.09 619c1.59-1.72 22.42-13.1 29.75-7.9s6.88 9 5.95 15.36-8 40.34-8 40.34a22.92 22.92 0 0 1 -16.66.91l2.05-25.3-27.7-17.71" fill="#003255"/><path d="m747.92 582.86c1.1.81 10.61 1.95 12.6 6.34s5 27 5 27-5.7 8.5-15.58 5.48c-2.93-.9-18.13-28.69-18.57-31.57-1.03-7.53 16.55-7.25 16.55-7.25z" fill="#8cd1bf"/><path d="m729.16 631.69a25.52 25.52 0 0 1 -1.18-3.52c-2.33-9.14-3.86-43.45 11.57-42 16.92 1.53 11.21 43.91 28.36 42.61s24.18 3.16 17.16 9.8c-14.02 13.23-47.31 13.53-55.91-6.89z" fill="#ffb951"/><path d="m754 570.62c.11.69 1.33 10.52-1.57 12.73s-9.45-3-9.61-5.61-2.37-8 .41-9.36 9.98-2.62 10.77 2.24z" fill="#ffe0de"/><path d="m749.11 563.13a15.67 15.67 0 0 0 -6-.07c-2.39.41-4.16 1.18-4.88 2a15.49 15.49 0 0 0 -2.15 3l-.08.13c-1.42 2.48-.92 6.25-.92 6.25.92 7.23-2.34 13.93 1.51 17 2.52 2 7.37 1.83 10.11-.89a8.15 8.15 0 0 0 2.19-5.51 9.75 9.75 0 0 0 -1.19-5.5c-.66-1.14-1.55-2-1.55-3.49a4.39 4.39 0 0 1 .71-2.25c1.53-2.68 4.62-3.68 5.67-4a2.6 2.6 0 0 0 1.62-1.12 2.88 2.88 0 0 0 0-2.35c-.42-1.55-2.36-2.64-5.04-3.2z" fill="#e15c39"/><path d="m776.24 573.33 27.36 17.13-4.53 19.3-25.57-17.45z" fill="#21a63b"/><path d="m773.51 592.29s-14 7-13.81 7.14 24.7 18.57 24.7 18.57l14.67-8.2z" fill="#3129a3"/><path d="m779.42 607s3.72-3.33 4.27-3.6a2.85 2.85 0 0 1 2.42.68c.59.56 1.43.36 2.09 1.08s2.35 3.23 1.87 3.9-1.81-1-2.27-1.33 0 1.33-.63 2.35-4.5 2-5.53 1.79" fill="#ffe0de"/><path d="m777 597.74a20.09 20.09 0 0 0 -2.27-1.48c-.69-.32-1.32-.68-1.93-1a2.32 2.32 0 0 0 -1.85-.29 46.23 46.23 0 0 0 -3.84 3.15c-.75.53-1.5 1-2.29 1.54a.66.66 0 0 0 -.22.91.68.68 0 0 0 .74.3 8.7 8.7 0 0 0 1.13-.35 4.21 4.21 0 0 0 0 .71 3.36 3.36 0 0 0 .42 2.34.71.71 0 0 0 .19.23l-.49.19c-.8.29-.45 1.57.36 1.32l4.56-1.67a6.43 6.43 0 0 0 2.93-1.67.67.67 0 0 0 -.65-1.12c-.33.08-.65.19-1 .3.73-1 1.85-2.19 2.23-1.86a2.65 2.65 0 0 0 3.05.11c.73-.74-.55-1.3-1.07-1.66z" fill="#ffe0de"/><path d="m767.06 598.23s-4.74.63-8.28.72a65.14 65.14 0 0 0 -4 6.1c.27 1.33.37 2.66.67 4a3.3 3.3 0 0 1 0 .77c6.3-1 13-3.63 13.55-5 .87-2.27-1.94-6.59-1.94-6.59z" fill="#699e90"/><path d="m761.14 592.29s4.55 15.53 7.22 15.59 11-2.77 11-2.77 3.61 3.68 3.2 6-15.24 10.61-21.43 9.1-9.2-22.92-9.06-23.33 9.07-4.59 9.07-4.59z" fill="#8cd1bf"/><path d="m536.81 262.46-6-3a2.19 2.19 0 0 0 -2.46.74 2 2 0 0 0 1.15 2.74l1.75 1-2.86-.27c-.43-.06-.8.11-.87.33s.2.72.79.82c2.06.46 4.2.83 6.26 1.29z" fill="#f0a895"/><path d="m499.35 310.77s3.24-5.41 3.47-21.77v-17.15a7.6 7.6 0 0 1 3-6.19 10.11 10.11 0 0 1 5-1.79 3.77 3.77 0 0 1 1.06 0l20.3 3.09 10.15 6.18s1.41-1.32-8.74-7.24l2.65-3.88s34.06 17.38 18.26 22.5c0 0-8.91 2.56-16.5-.09l-.76 36.09s-27.18 1.98-37.89-9.75z" fill="#ffb951"/><path d="m517.94 260.77v2.17s5.83 2.12 9.3 1.06v-1.47a3 3 0 0 0 1.8-.25c1.8-.93 1.91-3.84 2-6.35.11-3.1-.36-7-1.23-7.1-.19 0-.36.16-.47.3z" fill="#ffb29e"/><path d="m529.84 250c.38-.66.46-.7.51-.94.39-1.65-2.29-3.57-2.51-3.74a8.53 8.53 0 0 0 -6.1-1.53 8.67 8.67 0 0 0 -5.11 1.9 8.84 8.84 0 0 0 -2.86 6c-.33 3.71 1.43 8.41 4.75 9.4a5.16 5.16 0 0 0 3.82-.43c1.46-.86 2.58-2.69 2.44-3.81a2.37 2.37 0 0 1 .12-1.15 1.17 1.17 0 0 1 .54-.7.94.94 0 0 1 .82 0c.08 0 .3.18.46.72.31 1-.19 1.6.22 2.21 0 .07.23.33.47.33s.42-.27.48-.37c.61-.94 0-3.17.71-5.25a16.05 16.05 0 0 1 1.24-2.64z" fill="#bf8a15"/><path d="m510 397.08c.86-.07 1.75-.13 2.65-.18l2.2-.1a1.63 1.63 0 0 1 1.6.63 1.79 1.79 0 0 1 -1.25 2.27 15.93 15.93 0 0 1 -8.17 1.44v.86h-4v-1.09l.06-2.32 7-3.89z" fill="#333"/><path d="m531.05 405.37q1.29-.11 2.64-.18l2.21-.1a1.62 1.62 0 0 1 1.6.63 1.8 1.8 0 0 1 -1.25 2.27 16.06 16.06 0 0 1 -4.22 1.29 16.25 16.25 0 0 1 -4 .15v.82h-4v-1.09l.06-4.64 7-1.56z" fill="#333"/><path d="m499.35 310.77s7.86 9.79 37.86 9.79l-5.74 84.8s-5.29 1.23-7.41 0l-6.53-71.06-7.41 62.7-.25.18a12.11 12.11 0 0 1 -7 2.07h-.18l-.94-69.41s-3.98-3.43-2.4-19.07z" fill="#1a2444"/><path d="m517.98 262.94-.16 1.88 9.64 1.47-.23-2.45z" fill="#ffefeb"/><path d="m391.48 352.79h-4.08l-3.89-2.69a.54.54 0 0 0 -.59 0 .6.6 0 0 0 0 .85l1.9 2.42a.38.38 0 0 1 -.09.54l-6.37 4.77c-.48.53-1.21 1.42-.94 2 .36.74 2.4.47 3.44.22a40.4 40.4 0 0 0 10.62-4.47z" fill="#fcd3b7"/><path d="m428.18 362.29a1.6 1.6 0 0 1 0 .29 8 8 0 0 1 -3 5.51l-.43.32s13.42 6.71 26 5.88c0 0 1.36.83 1.36-5.7v-24.47s-1-7.71-11.24-10.39l-10.1-4.12a10.75 10.75 0 0 0 -4.46.8c-1.93.8-3.48 2.47-6.5 5.76l-4.45 4.83a22.09 22.09 0 0 1 -4.2 4c-3.39 2.29-9.36 5.14-19.68 7.41v4.53s15.47.18 28.29-10.3a9.54 9.54 0 0 0 1 4.11 9.43 9.43 0 0 0 3.23 3.6v9l17.47 1.16 1.65-15.83.64 16.18z" fill="#276093"/><path d="m393.86 331.44 21.35 10.76 10.42 24.09-18.8-9.57z" fill="#ffb81c"/><path d="m425.14 368.09a13.26 13.26 0 0 1 -6.18-2.22c-.84-.48-4-2.3-3.69-3.35s4.27-.88 6.44-.67c-.06-.33-.12-.61-.17-.81 0 0-.72-3.22-.49-3.61a.61.61 0 0 1 .36-.29c.3 0 .69.41.88 1.15l1.26 3.57 4.21 2.55a8.2 8.2 0 0 1 -2.62 3.68z" fill="#fcd3b7"/><ellipse cx="435.41" cy="326.98" fill="#ffa681" rx="4.99" ry="7.54"/><path d="m437.29 324.76c-1.4.2-4.17.4-6.15-.73a2.84 2.84 0 0 1 -.92-4c.92-1.41 2.92-3 7.22-2.78a6.67 6.67 0 0 1 3.59 1.17 7.81 7.81 0 0 1 2.3 2.48c2 3.42 1.09 8.35-2.35 12.12a2 2 0 0 1 -1.77.66 1.83 1.83 0 0 1 -1-.88 3 3 0 0 1 -.46-1.8l.36-5.5a.71.71 0 0 0 -.82-.74z" fill="#7c878e"/><ellipse cx="441.83" cy="468.07" fill="#e70" rx="6.88" ry="2.71" transform="matrix(.22307998 -.97480014 .97480014 .22307998 -113.03 794.31)"/><path d="m425.24 452.7a14.64 14.64 0 0 0 -1.79 3.68c-.48 1.47-1.32 4-.53 4.59.95.66 4.06-1.75 5.82-4.38a9.6 9.6 0 0 0 1.69-5.53c0-.88-.05-1.88-.6-2.14-1.09-.52-3.45 2.13-4.59 3.78z" fill="#e70"/><path d="m439.67 457.92-.09 8.45c0 1.48.23 4.54 1.26 4.75.71.14 1.53-1.15 1.89-1.74.81-1.32 2.29-4.53 1.84-11.46z" fill="#fcd3b7"/><path d="m426.62 449.4c-.24.74-.61 1.91-1.08 3.34-1.26 3.81-1.82 5.23-1.38 5.54s1.37-.45 1.71-.73c2.47-2.05 4.15-8.46 4.15-8.46z" fill="#fcd3b7"/><path d="m443.89 373.71a25.11 25.11 0 0 1 2.32 4.6 27.31 27.31 0 0 1 1.68 10.69c-.18 6.77-.69 33-1.74 68.92h-7.3l-4.58-50.71-2.94 41.79-5.21.47s-8-76.59-2.32-81.06z" fill="#1a2444"/><path d="m346 498.29a1.39 1.39 0 0 1 -.25-.43 103.52 103.52 0 0 0 1.12-10.95c.31-6.16-.19-7.12-.08-16.68.06-5.29.23-6.81.17-12.18 0-3.51-.15-6.41-.24-8.36l10.76-2.09q-.72 4.95-1.41 10c-.26 1.94-3.65 28.22-4.76 36.48.95 2.36 1.91 4.72 2.86 7.07l.65 1.5" fill="#ffe9d8"/><path d="m330.4 489.12a1.8 1.8 0 0 1 -.25-.43c0-.33.05-.88.09-1.55.53-9.41.51-13.14.95-26.08.05-1.45.13-4.48.18-8.49 0-1.05 0-2.23 0-3.69 0-3.52-.15-6.41-.25-8.36l10.77-2.09c-.25 1.65-.49 3.31-.72 5-.37 2.62-.64 4.56-.7 5-.36 2.65-1.63 11.81-5.29 37.87a49.4 49.4 0 0 0 2.45 8c.12.22.55 1 .24 1.48a.94.94 0 0 1 -.62.36l-.93-.53-1.94-.27z" fill="#ffe9d8"/><path d="m331.88 410.61a2.07 2.07 0 0 1 -.28.75 82.39 82.39 0 0 0 -7.06 15.3c-2.81 8.24-4.81 14.09-2 18.18 1.86 2.71 4.92 3.34 10.73 4.54a45.07 45.07 0 0 0 18.51-.36c1.84-.37 3.5-.8 4.93-1.23a4.6 4.6 0 0 0 3.28-4.51 67.58 67.58 0 0 0 -6.64-28 13.66 13.66 0 0 1 -1.34-5.9v-3.63c0-2.11-.93-9 3.86-1.26l2.71 3.85s2.54 3.06 5.54-.3c2.13-2.39 6.56-8.63 8.92-12a2.21 2.21 0 0 0 -.65-3.13c-.14-.09-.28-.18-.42-.29a2.06 2.06 0 0 0 -2.84.17l-5.13 5.57a2.1 2.1 0 0 1 -3.55-.68v-.08c-2-4.59-3.3-8.34-4.17-11-1.1-3.32-1.83-6-4.36-7.64a8.17 8.17 0 0 0 -3.7-1.24l-19.7-.88a2.07 2.07 0 0 0 -1.47.6c-1.87 1.87-6.3 8.3 2.37 22.18a2.14 2.14 0 0 0 .13.19 14.07 14.07 0 0 1 2.33 10.8z" fill="#00c389"/><path d="m343 374.94v2.49h-6.57v-16.61a.37.37 0 0 1 .23-.36c1.62-.74 11.27-4.51 9.12 11.85a2.53 2.53 0 0 1 -1.92 2.15l-.48.08a.42.42 0 0 0 -.38.4z" fill="#ffe9d8"/><path d="m344.41 367.25s5.53-8.89-6.56-12a9.69 9.69 0 0 0 -7.07.83c-3.23 1.82-6.88 5.83-4.57 14.44 0 0 2.81 5.41-2.16 10.82s1.15 17.94 12.81 17.29 15-10.11 5.35-20.64c0 0-2.91-1.52-2.39-6.68a1.48 1.48 0 0 1 1-1.2 7.17 7.17 0 0 0 3.59-2.86z" fill="#1d2518"/><path d="m359.86 348.67s1.7 2.49-.54 4l-.23.73-3.84-.85.13-.65-7.8-2.87s-4.22-4.37 4.91-2.93z" fill="#121b33"/><ellipse cx="344.58" cy="351.54" fill="#121b33" rx="2.56" ry="6.63" transform="matrix(.38123173 -.92447951 .92447951 .38123173 -111.76 536.1)"/><path d="m339.9 282.68 28.59-2.68s-6.37 58.52-8.13 69l-7.65-2.45 1-49.44s-5 17.18-3.16 48.24l.12 7.41-9.18-2.61s-6.09-57.36-3.22-63.31z" fill="#ff9e1b"/><path d="m338.18 280.43-2.59 2.35c-2.08 2.53-3.2 4.94-2.53 5.73s3.61 0 7-2.28l2.57-2.86z" fill="#fcd3b7"/><path d="m353.61 225.35v2.41l-3.15 3.41s-.46 1.83 1.54 1.35a58.09 58.09 0 0 0 7.36-3.11v-4.06s6.22-6.71 0-12.71c-.89-.85-2.41-2.29-4.47-2.18a5.5 5.5 0 0 0 -3 1.32 10.66 10.66 0 0 0 -3.59 5.06c-1.13 3.08-1.12 6.37-.05 7.47a3.49 3.49 0 0 0 .53.44 4.73 4.73 0 0 0 2.47.62 15.43 15.43 0 0 0 2.36-.02z" fill="#fcd3b7"/><path d="m367.38 248.94s-5.2 13.85-2.48 20.91l3.47 9.63a2.46 2.46 0 0 1 -1.05 2.95c-4.7 2.8-18.18 9.1-30.05-1.91 0 0 9.17-20.38 5.82-27.61s3.09-18.53 3.09-18.53-17.12-7.59-28.5-16.41l1.68-3.89 33.82 13.68s-7.11 6.46 7.54.9z" fill="#7c878e"/><path d="m352.86 248.14s6.65 16.86-11.33 30.86c0 0 10.47-8.8 11.33-30.86z" fill="#5b6770"/><path d="m344.12 241s-2.16 3-1.35 10.48 1.35-10.48 1.35-10.48z" fill="#5b6770"/><path d="m353 227a1.08 1.08 0 0 0 1.1.88c2.69-.16 10.79.14 6.82 10.31-4.72 12.09 12.32 12.57 12.32 12.57s11.08.79 4.84-18.23a28.19 28.19 0 0 0 -6-9.15 9.18 9.18 0 0 1 -2.16-3.6c-1.64-5.24-6.75-18.12-16.11-13.43 0 0-8.25 5.4 4.25 14.2a.38.38 0 0 1 -.1.67c-1.77.5-5.73 2.01-4.96 5.78z" fill="#e15c39"/><path d="m319.29 214.35-9.49-4.24s-1.09.09-.44 1l2.41 1.33-.14.09a2 2 0 0 0 .67 3.61l5.56 1.55z" fill="#fcd3b7"/><path d="m238 487a11.44 11.44 0 0 1 .1 2.72 10.62 10.62 0 0 1 -.66 2.85l-5.48-.54.12-1.18s-8.4.78-13.55-3.85a1.09 1.09 0 0 1 .41-1.87c1.59-.45 5.06-.58 12.57 1.1z" fill="#151c36"/><path d="m220.75 490.39a10.73 10.73 0 0 1 .25 5.61l-5.5.29-.06-1.18s-8.19 2-14-1.78a1.09 1.09 0 0 1 .12-1.91c1.51-.68 4.92-1.34 12.59-.8z" fill="#151c36"/><path d="m237.73 404.8s2 80.91 0 83.21-9.4-.53-9.4-.53l-4.07-48.62-3.08 52.23s-8.29 1.5-9 0-7.26-79.85-4.41-79.85 29.96-6.44 29.96-6.44z" fill="#276093"/><path d="m215.23 409.9v81.85c-1.52 0-2.8-.11-3-.66-.68-1.5-7.26-79.85-4.41-79.85a65.23 65.23 0 0 0 7.41-1.34z" fill="#21517d"/><path d="m222 334.63c-2.79-.46-5.92 2.16-7.18 6.15-1.35 4.25-.07 8.44 2.85 9.36a4.13 4.13 0 0 0 1 .18v3.74h7.5v-5.15s3.46-13.62-4.17-14.28z" fill="#f0af86"/><path d="m214.58 338.27s1.06-6.93 9.31-6.09 8.47 12.57 2.92 16.9c-4 3.08-6.22.42-7.19-1.36a3.67 3.67 0 0 1 -.4-2.16 3.83 3.83 0 0 0 -2.25-3.94c-3.22-1.68-2.39-3.35-2.39-3.35z" fill="#e15c39"/><path d="m213.76 356.47s1.51-3 12.5-3.17v-1.94s6.21-1.06 6 2.55-18.5 2.56-18.5 2.56z" fill="#fff"/><path d="m205.6 394.32-1 6.4s3.86 1 5.68-.22 1.76-4.88 1.76-4.88-4.54-2.97-6.44-1.3z" fill="#f0af86"/><path d="m254.82 367c-18.53-18.82-28.56-15.79-28.56-15.79 3.44 5.41-8.06 4.23-11.6 4.23a2.22 2.22 0 0 0 -1.55.47c-3.11 2.85-16.26 14.92-23.84 22.51-8.65 8.64 15.26 22.67 15.26 22.67l1.15-7.23-8-8.39a1 1 0 0 1 .05-1.36l9.79-9v34.41c0 13.33 30.18-4.76 30.18-4.76l-1.24-17.38c25.78-15.23 18.36-20.38 18.36-20.38zm-17.16 8.37v-9l4.33 3c4.32 3.05-4.33 6-4.33 6z" fill="#1d2518"/><path d="m191.23 313.75 10.16-8.61a1.17 1.17 0 0 1 1.92.28 2 2 0 0 1 -.16 2l-2.68 3.35c1.84-.08 4.28-.18 7.5-.29 1.77 0 3.55-.08 4.56 1.09a2.11 2.11 0 0 1 .59 1.21c.11 2.24-5.72 4.25-7.88 5a43.15 43.15 0 0 1 -11.24 2.22z" fill="#f8c4b8"/><path d="m134.39 364.41 4.66 13c.54 2.08 1.9-.21.17.71-28.07 15-37.6 22.28-51.92 29.71-1 .55-3.62-35.68 2.28-44.32z" fill="#1d2518"/><path d="m118.15 287s12.23-5.49 39.28 26.76l33.61-.91 3.96 7.15s-43.25 14.79-56.69-1.67c0 0 4 13.1-5 19.24a75.54 75.54 0 0 0 -.59 17.56c.4 4.63 2.89 8.51 4.48 15.84 1.32 6.1-18.74 8.1-35.73 7.57-7.23-.23-15.4-2.28-14.48-7.05 2.53-13.11 5.57-24.52 4.81-34a162.87 162.87 0 0 0 -8.68 58.62h-10.3s-6.35-89.57 23.57-106.82l6.48-3.72z" fill="#276093"/><path d="m123.77 263.65c-3.63-7.48-13.31-15-20.22-12s-9.25 13.31-5.06 23a25.09 25.09 0 0 0 4.39 6.88v5.75l16.67 16.24q-.72-8.43-1.43-16.86a7 7 0 0 0 4.34-1.11c.51-.36 2.57-1.93 3.1-8.21.29-3.64.7-8.58-1.79-13.69z" fill="#f8c4b8"/><path d="m105 281.48c1.18.59 2.36 1.15 3.55 1.71s2.41 1.06 3.63 1.52a32 32 0 0 0 3.72 1.28 11.32 11.32 0 0 0 3.88.49 9.63 9.63 0 0 1 -3.92-.33 33 33 0 0 1 -3.77-1.2 54.71 54.71 0 0 1 -7.09-3.47z" fill="#e3b3a8"/><path d="m95.68 260c.47-2 1.65-7.16 6.32-10.6s11.6-4.37 17-1.17c7.15 4.19 9.21 14.21 7.13 15.92-.71.58-1.46-.17-4.59-.37-4-.26-5.48.82-8.55.87a16 16 0 0 1 -8.54-2.53c.27 14.14-1.08 17.45-2.43 17.71-1.92.36-4.79-5.34-5.94-9.24a21.35 21.35 0 0 1 -.4-10.59z" fill="#45393f"/><ellipse cx="99.28" cy="253.72" fill="#45393f" rx="12.98" ry="9.42" transform="matrix(.54610196 -.83771872 .83771872 .54610196 -167.49 198.32)"/><path d="m119.23 294.79 14.06 4.32-15.21-12.57z" fill="#fff"/><path d="m113.79 297.85-.57 9.62-17.22-17.92 6.86-3.95z" fill="#fff"/><path d="m74.43 396.14c.1 1.54.76 11 3.45 13.9a3 3 0 0 0 2.27 1.22c1.16-.1 1.94-1.38 2.12-1.69a4.28 4.28 0 0 0 .51-1.77 54.12 54.12 0 0 0 .3-5.62c-.07-1.64-.14-3.38-.24-6z" fill="#f8c4b8"/><ellipse cx="103.54" cy="270.74" fill="#f8c4b8" rx="2.8" ry="3.36" transform="matrix(.90608638 -.42309275 .42309275 .90608638 -104.83 69.24)"/><g clip-path="url(#h)"><path d="m130.41 263.74-.45-.07.52-.43zm-4.09 6.94a7.66 7.66 0 0 1 -1.16.55c-1.59.58-2.76.38-3.14-.56a5.09 5.09 0 0 1 -.19-3.56c.08-.2.43-.79 1.87-1.63a19.32 19.32 0 0 1 1.76-.87c.52-.22 1-.4 1.33-.54 1.72-.64 2.21-.46 2.45.05a3.53 3.53 0 0 1 .1 1.53 7.22 7.22 0 0 1 -1.9 4.23 6.4 6.4 0 0 1 -1.12.8m-11.69 4.32a7.71 7.71 0 0 1 -1.13.52 3.88 3.88 0 0 1 -2.12.28c-1.09-.29-1-2.14-.84-3.23a6.31 6.31 0 0 1 .57-1.77 3.25 3.25 0 0 1 1.36-1.35 9.65 9.65 0 0 1 1.37-.62c.38-.14.81-.28 1.31-.43 2.89-.86 3.25-.26 3.3 0 0 0 .18 1.28-1.29 4.09a6.7 6.7 0 0 1 -2.53 2.54m-4.71-3.72.07-.5.46.07zm.87-2-.33.2a1.9 1.9 0 0 0 -.88 1.26c0 .14-.06.39-.09.61s0 .28 0 .36c-.07.46 0 .59.13.69l.06.1a.89.89 0 0 1 0 .35c0 3.16 0 3.58 1 3.89a5 5 0 0 0 2.63-.41 10.33 10.33 0 0 0 1.55-.73 8.92 8.92 0 0 0 1.67-1.23c1.62-1.52 2.66-5.09 2.71-5.27a.93.93 0 0 1 .5-.55 1.57 1.57 0 0 1 .29-.14c.64-.24.63.15.63.19s.08 3.29 1.43 3.72a5.1 5.1 0 0 0 3-.34 9.86 9.86 0 0 0 1.64-.77 6.11 6.11 0 0 0 1.16-.82c1.21-1.13 1.37-1.62 2.28-5.1a1.82 1.82 0 0 1 .16-.43l.11-.16a1.76 1.76 0 0 0 .33-.86c0-.08 0-.21.06-.36s.07-.48.09-.62c.07-.66-.37-.76-.61-.72a18.35 18.35 0 0 0 -5.23 1.62h-.1c-.66.3-1.15.53-1.6.79a7.07 7.07 0 0 0 -1.09.77c-.19.17-.4.35-.57.52a9.15 9.15 0 0 1 -1 .8l-.27.16a1.44 1.44 0 0 1 -.44.15h-.26a2.77 2.77 0 0 1 -.87-.1 3.36 3.36 0 0 0 -.48-.13 5.17 5.17 0 0 0 -2.51.36h-.11a22.22 22.22 0 0 0 -5 2.08" fill="#496e80"/></g><path d="m109.88 272.22-6.62-4.22a1.35 1.35 0 0 0 -.87-.21l-3.38.32-.05-.5 3.38-.32a1.85 1.85 0 0 1 1.19.29l6.62 4.25z" fill="#496e80"/><path d="m308.66 429.9v2.1h-3.79v-.84s-5.69 1.13-9.52-1.77a.79.79 0 0 1 .15-1.35c1.06-.42 3.42-.76 8.67-.1z" fill="#151c36"/><path d="m287.13 432.59v4.41h-3.79v-.84s-5.68 1.13-9.52-1.77a.79.79 0 0 1 .15-1.35c1.06-.42 3.42-.76 8.67-.1z" fill="#151c36"/><path d="m275.67 352.53s22.41 6.36 36-7.41c0 0 3.43 9.52-1.59 16.38a5.24 5.24 0 0 0 -1.06 3.09v65.24s-5.88 1.29-7.71-1l-7.58-63.41-6.24 67.41s-4.35 2-7.06 0c0 0-7.76-78.24-4.76-80.3z" fill="#1a2444"/><path d="m244.46 298.05-7-7.63s-1.67-.62-1.19 1l2.07 2.78a2.61 2.61 0 0 0 -.48.19 2 2 0 0 0 -.33 3.35l3.82 3z" fill="#8f644d"/><path d="m284.27 300.23v-2.39a3.15 3.15 0 0 1 -1.59-.27c-2.87-1.39-2.36-7.42-2.29-8.27.18-2.21.47-5.59 3.1-7.38a6.58 6.58 0 0 1 3.78-1.08s7.1-1 7 10c0 0 .22 6.6-2.6 6.87v1.31z" fill="#8f644d"/><path d="m282.47 285.06c.13-2.23 1.24-7.83 9.26-5.56 0 0 9.68 5.59 4.33 15.07a5.73 5.73 0 0 1 -4.53 3c-1.69.11-3.7-.52-5.16-3.36a1.61 1.61 0 0 1 -.09-1.27 4.27 4.27 0 0 0 -1.52-5.15l-1.7-1.36a1.6 1.6 0 0 1 -.59-1.37z" fill="#1d2518"/><path d="m296.27 299.77-2.27-2.51s-5.73 2.68-10.46 2.51l-2.16 2s12.62 1.88 14.89-2z" fill="#fff"/><path d="m280 301.67s11.09 1.42 16.82-2.24c0 0 11.9-2.14 11.9 11.07 0 0-2.51 19.91 2.95 35.18 0 0-16.37 14.2-36.5 7.5 0 0 4.38-26.34-1.61-33.48 0 0-16.28 10.8-22.9-2.68l-9.48-15.71s-.09-1.7 3.26-3.26c0 0 13.73 17.19 18.21 14.06s17.35-10.44 17.35-10.44z" fill="#e15c39"/><ellipse cx="340.21" cy="366.26" fill="#276093" rx="3.25" ry="4.09"/><path d="m330.59 356.22s.75-1.87 4.37-1.16a9.34 9.34 0 0 1 3.06 1.76 8.49 8.49 0 0 1 2.83 5.94l-2.21 1.11a6.87 6.87 0 0 0 -1.27-4.32c-2.23-3.1-6.37-3.32-6.78-3.33z" fill="#276093"/><ellipse cx="340.21" cy="366.26" fill="#20507a" rx="2.87" ry="3.6"/><path d="m434.26 317.49a5.46 5.46 0 0 1 1.21-.27 5.54 5.54 0 0 1 1.5 0 12.27 12.27 0 0 1 2.7 2.71 12.49 12.49 0 0 1 2.21 5.56l-1.33.84c-.81-3.18-2.46-6.94-5.87-8.67-.14-.04-.27-.11-.42-.17z" fill="#f7c24d"/><path d="m437.16 333.47a2.2 2.2 0 0 1 -.79-.14l-1.25-.44a.23.23 0 0 1 .15-.43l1.25.45a1.89 1.89 0 0 0 2.16-.66l1.3-1.77a.23.23 0 0 1 .36.27l-1.3 1.76a2.31 2.31 0 0 1 -1.88.96z" fill="#f7c24d"/><ellipse cx="441.28" cy="328.41" fill="#f5b629" rx="2.38" ry="3.32"/><path d="m357.28 217.14a21.29 21.29 0 0 1 1.77-2.25c.21-.23 4.9-5.38 6.84-4.29a1.71 1.71 0 0 1 .75 1.25l-.93.57a28.55 28.55 0 0 0 -6.84 6.25z" fill="#fff"/><path d="m351.29 223.2a3.26 3.26 0 0 1 -1.63-.43l-1.94-1.13a.26.26 0 0 1 -.09-.35.26.26 0 0 1 .34-.09l1.95 1.14a2.75 2.75 0 0 0 2.91-.11l1.49-1a.25.25 0 0 1 .28.42l-1.49 1a3.25 3.25 0 0 1 -1.82.55z" fill="#fff"/><ellipse cx="356.59" cy="219.9" fill="#b9c9d4" rx="3.57" ry="2.87" transform="matrix(.41310443 -.91068366 .91068366 .41310443 9.04 453.82)"/><ellipse cx="356.59" cy="219.9" fill="#98a4ad" rx="3.2" ry="2.56" transform="matrix(.41310443 -.91068366 .91068366 .41310443 9.04 453.82)"/><path d="m219.68 340.24a21.29 21.29 0 0 1 1.77-2.25c.21-.23 4.9-5.37 6.84-4.28a1.66 1.66 0 0 1 .71 1.29l-.93.57a28.55 28.55 0 0 0 -6.84 6.25z" fill="#fff"/><path d="m213.69 346.3a3.23 3.23 0 0 1 -1.63-.43l-1.94-1.13a.25.25 0 1 1 .25-.43l1.95 1.13a2.75 2.75 0 0 0 2.91-.11l1.49-1a.25.25 0 0 1 .35.06.26.26 0 0 1 -.07.35l-1.49 1a3.26 3.26 0 0 1 -1.82.56z" fill="#fff"/><ellipse cx="218.99" cy="343" fill="#b9c9d4" rx="3.57" ry="2.87" transform="matrix(.41310443 -.91068366 .91068366 .41310443 -183.84 400.76)"/><ellipse cx="218.99" cy="343" fill="#a9b7c2" rx="3.22" ry="2.58" transform="matrix(.41310443 -.91068366 .91068366 .41310443 -183.84 400.76)"/><path d="m285.25 287a22.35 22.35 0 0 1 1.76-2.25c.22-.23 4.91-5.38 6.85-4.29a1.71 1.71 0 0 1 .74 1.25l-.92.57a28.16 28.16 0 0 0 -6.84 6.25z" fill="#f7c24d"/><path d="m279.25 293.07a3.22 3.22 0 0 1 -1.62-.43l-1.95-1.13a.25.25 0 0 1 -.09-.34.24.24 0 0 1 .34-.1l1.95 1.13a2.73 2.73 0 0 0 2.91-.1l1.5-1a.24.24 0 0 1 .34.07.25.25 0 0 1 -.06.35l-1.49 1a3.28 3.28 0 0 1 -1.83.55z" fill="#f7c24d"/><ellipse cx="284.56" cy="289.77" fill="#f5b629" rx="3.57" ry="2.87" transform="matrix(.41310443 -.91068366 .91068366 .41310443 -96.87 429.23)"/><ellipse cx="284.56" cy="289.77" fill="#f0a600" rx="3.07" ry="2.47" transform="matrix(.41310443 -.91068366 .91068366 .41310443 -96.87 429.23)"/><path d="m82.81 396.14 1.79 1.86s3 2.3.65 2.38-5.72-3.52-5.72-3.52" fill="#f8c4b8"/><path d="m328.69 489.42 1.06 3.54a2.47 2.47 0 0 1 .13.71l.29 3.39a.33.33 0 0 0 .34.29.34.34 0 0 0 .33-.35v-4c0-.24.24-.63.81 0a17.45 17.45 0 0 0 -2.96-3.58z" fill="#656566"/><path d="m330.5 497c-.14-3.31 0-3.49-.23-4.09l-.84-2.79c-.43-.46-.74-.74-.74-.74l1.06 3.54c.14.42.09.32.42 4.1a.33.33 0 0 0 .5.24.32.32 0 0 1 -.17-.26z" fill="#545456"/><path d="m340.45 496.25a9.9 9.9 0 0 0 -2.61-2 .9.9 0 0 0 -.92.07 2.21 2.21 0 0 1 -1.25.42c-1.28.05-1.88-1.38-1.88-1.38l-3-6a.59.59 0 0 0 -.87-.31 2.6 2.6 0 0 0 -1.24 2.36 22.09 22.09 0 0 1 3.47 4.59c.36.79.66 1.47 1 2a2.35 2.35 0 0 0 1.93 1.18l5-.18a.47.47 0 0 0 .37-.75z" fill="#00c389"/><path d="m333.78 496c-.3-.53-.6-1.22-1-2a20.08 20.08 0 0 0 -2.94-4.11 1.72 1.72 0 0 1 -.26-1.92 2.67 2.67 0 0 1 .75-.91.64.64 0 0 0 -.44.08 2.6 2.6 0 0 0 -1.24 2.36 22.09 22.09 0 0 1 3.47 4.59c.36.79.66 1.47 1 2a2.35 2.35 0 0 0 1.93 1.18h.66a2.37 2.37 0 0 1 -1.93-1.27z" fill="#00a373"/><path d="m344.84 495.33 1 3.63a2.57 2.57 0 0 1 .11.72l.19 3.45a.33.33 0 0 0 .33.31.35.35 0 0 0 .35-.34l.1-4c0-.25.27-.64.83 0a17.6 17.6 0 0 0 -2.91-3.77z" fill="#656566"/><path d="m346.44 503.13c0-3.37.08-3.55-.11-4.17l-.76-2.86c-.43-.48-.73-.77-.73-.77l1 3.63c.13.43.08.32.3 4.17a.33.33 0 0 0 .5.27.34.34 0 0 1 -.2-.27z" fill="#545456"/><path d="m356.57 502.64a10 10 0 0 0 -2.58-2.08.87.87 0 0 0 -.94.05 2.36 2.36 0 0 1 -1.28.38c-1.3 0-1.87-1.46-1.87-1.46l-2.85-6.22a.61.61 0 0 0 -.88-.34 2.62 2.62 0 0 0 -1.33 2.36 22.31 22.31 0 0 1 3.38 4.77c.35.82.63 1.51.92 2a2.38 2.38 0 0 0 1.92 1.26h5.12a.48.48 0 0 0 .39-.72z" fill="#00c389"/><path d="m349.81 502.12c-.29-.55-.57-1.26-.92-2.09a20.11 20.11 0 0 0 -2.85-4.26 1.76 1.76 0 0 1 -.21-2 2.76 2.76 0 0 1 .79-.91.71.71 0 0 0 -.45.07 2.62 2.62 0 0 0 -1.33 2.36 22.31 22.31 0 0 1 3.38 4.77c.35.82.63 1.51.92 2a2.38 2.38 0 0 0 1.92 1.26h.67a2.39 2.39 0 0 1 -1.92-1.2z" fill="#00a373"/></svg>